<?xml version="1.0" encoding="utf-8"?>
<!-- Generator: Adobe Illustrator 16.0.4, SVG Export Plug-In . SVG Version: 6.00 Build 0)  -->
<!DOCTYPE svg PUBLIC "-//W3C//DTD SVG 1.1//EN" "http://www.w3.org/Graphics/SVG/1.1/DTD/svg11.dtd">
<svg version="1.1" id="Ebene_1" xmlns:sketch="http://www.bohemiancoding.com/sketch/ns"
	 xmlns="http://www.w3.org/2000/svg" xmlns:xlink="http://www.w3.org/1999/xlink" x="0px" y="0px" width="39.875px"
	 height="42.091px" viewBox="0 0 39.875 42.091" enable-background="new 0 0 39.875 42.091" xml:space="preserve">
<title>popcorn6</title>
<desc>Created with Sketch.</desc>
<g id="Desktop-1280x800-_x28_MacBook-13_x22__x29_" sketch:type="MSPage">
	<g id="The-Movie" transform="translate(-619.000000, -1053.000000)" sketch:type="MSArtboardGroup">
		<g id="Timetable" transform="translate(0.000000, 742.000000)" sketch:type="MSLayerGroup">
			<g id="Group" transform="translate(209.000000, 297.000000)" sketch:type="MSBitmapLayer">
				<g id="Oval-1-_x2B_-popcorn6-Copy-3">
					<g transform="translate(393.000000, 0.000000)">
						<g>
							<path fill="#FFFFFF" d="M18,37.007c0-1.696,0-3.393,0-5.089c0.261-0.738,0.795-1.018,1.558-0.97
								c0.481,0.031,0.967,0.001,1.45,0.013c0.167,0.004,0.25-0.037,0.313-0.207c0.608-1.624,1.523-3.059,2.695-4.333
								c0.384-0.417,0.773-0.83,1.178-1.264c-0.013-0.027-0.052-0.111-0.093-0.194c-0.501-1.028-0.99-2.062-1.507-3.082
								c-0.358-0.707,0.08-1.743,0.907-1.818c2.063-0.188,4.111-0.167,6.081,0.591c0.599,0.23,1.179,0.51,1.772,0.758
								c0.101,0.042,0.228,0.061,0.334,0.042c0.342-0.059,0.681-0.137,1.019-0.216c0.166-0.039,0.256-0.001,0.325,0.17
								c0.327,0.815,0.826,1.514,1.462,2.118c0.053,0.049,0.098,0.104,0.162,0.174c-0.334,0.044-0.635,0.081-0.936,0.124
								c-0.539,0.077-0.9,0.528-0.831,1.031c0.074,0.526,0.543,0.861,1.088,0.786c2.9-0.398,5.731-0.218,8.443,1.004
								c0.184,0.083,0.438,0.085,0.639,0.038c0.396-0.093,0.599-0.395,0.646-0.792c0.043-0.354-0.164-0.729-0.516-0.889
								c-0.473-0.215-0.956-0.403-1.469-0.617c0.873-0.5,1.556-1.17,2.108-1.976c0.209,0.092,0.398,0.166,0.579,0.257
								c0.425,0.212,0.854,0.415,1.266,0.65c4.054,2.318,6.592,5.69,7.179,10.398c0.264,2.115,0.01,4.179-0.765,6.169
								c-0.937,2.403-2.136,4.684-3.316,6.969c-0.754,1.461-1.555,2.896-2.33,4.346c-0.297,0.554-0.751,0.828-1.38,0.826
								c-1.153-0.004-2.308,0-3.462-0.002c-0.916-0.002-1.51-0.588-1.522-1.506c-0.006-0.398-0.001-0.799-0.001-1.197
								c0-0.146,0-0.295,0-0.438c-0.062-0.005-0.079-0.01-0.095-0.007c-1.957,0.357-3.923,0.439-5.9,0.202
								c-0.149-0.019-0.208,0.04-0.262,0.166c-0.261,0.616-0.53,1.229-0.797,1.842c-0.272,0.625-0.746,0.942-1.432,0.94
								c-1.137-0.004-2.273,0-3.41-0.002c-1.005,0-1.58-0.569-1.582-1.571c-0.002-1.128-0.019-2.257,0.01-3.384
								c0.009-0.379-0.11-0.584-0.428-0.785c-2.675-1.706-4.704-3.965-5.869-6.951c-0.038-0.098-0.139-0.188-0.234-0.239
								c-0.687-0.366-1.374-0.737-2.074-1.079C18.549,37.788,18.169,37.509,18,37.007z M29.658,31.251
								c0-1.013-0.811-1.827-1.823-1.83c-1.009-0.002-1.833,0.811-1.84,1.817c-0.007,1.015,0.825,1.849,1.84,1.846
								C28.843,33.082,29.658,32.261,29.658,31.251z"/>
							<path fill="#FFFFFF" d="M39.707,14.087c2.723,0.011,4.913,2.217,4.898,4.932c-0.016,2.762-2.219,4.967-4.943,4.948
								c-2.727-0.02-4.885-2.223-4.88-4.98C34.786,16.264,36.985,14.076,39.707,14.087z"/>
						</g>
					</g>
				</g>
			</g>
		</g>
	</g>
</g>
</svg>
