<?xml version="1.0" encoding="utf-8"?>
<!-- Generator: Adobe Illustrator 16.0.4, SVG Export Plug-In . SVG Version: 6.00 Build 0)  -->
<!DOCTYPE svg PUBLIC "-//W3C//DTD SVG 1.1//EN" "http://www.w3.org/Graphics/SVG/1.1/DTD/svg11.dtd">
<svg version="1.1" id="Ebene_1" xmlns="http://www.w3.org/2000/svg" xmlns:xlink="http://www.w3.org/1999/xlink" x="0px" y="0px"
	 width="36px" height="36px" viewBox="0 0 36 36" enable-background="new 0 0 36 36" xml:space="preserve">
<title>play-circle - FontAwesome</title>
<desc>Created with Sketch.</desc>
<g id="Page-1">
	<g id="Buttons" transform="translate(-411.000000, -325.000000)">
		<g id="PLAY-TRAILER" transform="translate(392.000000, 313.000000)">
			<path id="play-circle---FontAwesome" d="M37,12c-9.938,0-18,8.062-18,18s8.062,18,18,18s18-8.062,18-18S46.938,12,37,12L37,12z
				 M46,31.289l-12.75,7.5C33.016,38.93,32.758,39,32.5,39s-0.516-0.07-0.75-0.188C31.281,38.531,31,38.039,31,37.5v-15
				c0-0.539,0.281-1.031,0.75-1.312c0.469-0.258,1.055-0.258,1.5,0.023l12.75,7.5c0.469,0.258,0.75,0.75,0.75,1.289
				S46.469,31.031,46,31.289L46,31.289z"/>
		</g>
	</g>
</g>
</svg>
