<?xml version="1.0" encoding="utf-8"?>
<!-- Generator: Adobe Illustrator 16.0.4, SVG Export Plug-In . SVG Version: 6.00 Build 0)  -->
<!DOCTYPE svg PUBLIC "-//W3C//DTD SVG 1.1//EN" "http://www.w3.org/Graphics/SVG/1.1/DTD/svg11.dtd">
<svg version="1.1" id="Ebene_1" xmlns="http://www.w3.org/2000/svg" xmlns:xlink="http://www.w3.org/1999/xlink" x="0px" y="0px"
	 width="36px" height="36px" viewBox="0 0 36 36" enable-background="new 0 0 36 36" xml:space="preserve">
<title>Group 2</title>
<desc>Created with Sketch.</desc>
<g id="Page-1">
	<g id="Buttons" transform="translate(-680.000000, -325.000000)">
		<g id="SUPPORT-US" transform="translate(655.000000, 313.000000)">
			<g id="Group-2" transform="translate(25.000000, 12.000000)">
				<circle id="Oval-33" cx="18" cy="18" r="18"/>
				<path id="usd---FontAwesome" fill="#FFFFFF" d="M24.373,21.729c0-3.199-2.761-4.273-5.203-5.216
					c-1.885-0.73-3.504-1.354-3.504-2.761c0-1.208,1.168-2.044,2.854-2.044c1.99,0,3.598,1.42,3.61,1.434
					c0.106,0.08,0.226,0.12,0.358,0.093c0.133-0.013,0.238-0.093,0.305-0.212l1.076-1.938c0.092-0.159,0.066-0.358-0.066-0.504
					c-0.054-0.053-1.487-1.513-4.182-1.818V6.425C19.621,6.186,19.436,6,19.196,6h-1.792c-0.226,0-0.425,0.186-0.425,0.425v2.389
					c-2.774,0.531-4.685,2.548-4.685,4.991c0,3.332,2.973,4.526,5.362,5.469c1.792,0.717,3.358,1.34,3.358,2.615
					c0,1.5-1.407,2.189-2.708,2.189c-2.35,0-4.208-1.778-4.234-1.792c-0.08-0.093-0.199-0.133-0.318-0.119
					c-0.12,0.013-0.239,0.066-0.305,0.159l-1.367,1.792c-0.12,0.159-0.106,0.385,0.026,0.544c0.066,0.08,1.766,1.938,4.871,2.376
					v2.323c0,0.238,0.199,0.424,0.425,0.424h1.792c0.239,0,0.425-0.186,0.425-0.424v-2.323
					C22.436,26.574,24.373,24.437,24.373,21.729L24.373,21.729z"/>
			</g>
		</g>
	</g>
</g>
</svg>
