<?xml version="1.0" encoding="utf-8"?>
<!-- Generator: Adobe Illustrator 16.0.4, SVG Export Plug-In . SVG Version: 6.00 Build 0)  -->
<!DOCTYPE svg PUBLIC "-//W3C//DTD SVG 1.1//EN" "http://www.w3.org/Graphics/SVG/1.1/DTD/svg11.dtd">
<svg version="1.1" id="Ebene_1" xmlns:sketch="http://www.bohemiancoding.com/sketch/ns"
	 xmlns="http://www.w3.org/2000/svg" xmlns:xlink="http://www.w3.org/1999/xlink" x="0px" y="0px" width="29px" height="34px"
	 viewBox="0 0 29 34" enable-background="new 0 0 29 34" xml:space="preserve">
<title>popcorn6</title>
<desc>Created with Sketch.</desc>
<g id="Desktop-1280x800-_x28_MacBook-13_x22__x29_" sketch:type="MSPage">
	<g id="The-Movie" transform="translate(-623.000000, -1476.000000)" sketch:type="MSArtboardGroup">
		<g id="Timetable" transform="translate(0.000000, 742.000000)" sketch:type="MSLayerGroup">
			<g id="Group" transform="translate(209.000000, 297.000000)" sketch:type="MSBitmapLayer">
				<g id="Oval-1-_x2B_-popcorn6-Copy-6" transform="translate(0.000000, 420.000000)">
					<g transform="translate(393.000000, 0.000000)">
						<g>
							<path fill="#FFFFFF" d="M21.091,45.747c0-7.805,0-15.609,0-23.414c0.03-0.128,0.052-0.26,0.092-0.385
								c0.243-0.754,0.409-1.547,0.757-2.249c0.449-0.903,1.167-1.61,2.126-2.001c2.018-0.823,3.944-0.721,5.799,0.517
								c1.243,0.83,1.889,1.951,1.883,3.426c-0.007,2.198-0.055,4.396-0.083,6.593c-0.001,0.108,0.019,0.216,0.034,0.375
								c0.081-0.097,0.122-0.141,0.156-0.188c1.783-2.457,3.565-4.913,5.347-7.371c0.362-0.5,0.712-1.008,1.081-1.503
								c0.958-1.288,2.188-2.119,3.818-2.32c2.916-0.358,4.929,1.13,5.99,3.134c0.967,1.823,0.768,3.662-0.504,5.41
								c-1.806,2.482-3.49,5.052-5.239,7.576c-0.186,0.266-0.188,0.433,0.02,0.692c1.654,2.071,3.29,4.156,4.935,6.233
								c0.146,0.187,0.327,0.346,0.476,0.53c0.739,0.925,1.611,1.765,2.007,2.919c0.153,0.449,0.218,0.928,0.323,1.394
								c0,0.211,0,0.422,0,0.633c-0.024,0.086-0.063,0.171-0.07,0.259c-0.247,2.979-3.019,5.203-5.987,4.972
								c-1.391-0.109-2.713-0.438-3.669-1.572c-1.599-1.896-3.19-3.797-4.775-5.704c-1.126-1.354-2.237-2.722-3.356-4.083
								c-0.167-0.202-0.336-0.403-0.586-0.705c0,0.275,0,0.421,0,0.565c-0.001,1.883,0.019,3.766-0.012,5.647
								c-0.012,0.764-0.06,1.542-0.222,2.285c-0.4,1.838-2.107,3.282-4.225,3.528c-2.908,0.339-5.224-1.065-5.901-4
								C21.214,46.547,21.162,46.145,21.091,45.747z"/>
						</g>
					</g>
				</g>
			</g>
		</g>
	</g>
</g>
</svg>
