<?xml version="1.0" encoding="utf-8"?>
<!-- Generator: Adobe Illustrator 16.0.4, SVG Export Plug-In . SVG Version: 6.00 Build 0)  -->
<!DOCTYPE svg PUBLIC "-//W3C//DTD SVG 1.1//EN" "http://www.w3.org/Graphics/SVG/1.1/DTD/svg11.dtd">
<svg version="1.1" id="Ebene_1" xmlns:sketch="http://www.bohemiancoding.com/sketch/ns"
	 xmlns="http://www.w3.org/2000/svg" xmlns:xlink="http://www.w3.org/1999/xlink" x="0px" y="0px" width="32px" height="42px"
	 viewBox="0 0 32 42" enable-background="new 0 0 32 42" xml:space="preserve">
<title>popcorn6</title>
<desc>Created with Sketch.</desc>
<g id="Desktop-1280x800-_x28_MacBook-13_x22__x29_" sketch:type="MSPage">
	<g id="The-Movie" transform="translate(-621.000000, -2102.000000)" sketch:type="MSArtboardGroup">
		<g id="Timetable" transform="translate(0.000000, 742.000000)" sketch:type="MSLayerGroup">
			<g id="Group" transform="translate(209.000000, 297.000000)" sketch:type="MSBitmapLayer">
				<g id="Oval-1-_x2B_-popcorn6" transform="translate(393.000000, 1050.000000)">
					<g>
						<g>
							<path fill-rule="evenodd" clip-rule="evenodd" fill="#FFFFFF" d="M38.664,13.078c0.275,0.05,0.552,0.093,0.825,0.152
								c0.683,0.147,1.3,0.429,1.859,0.854c0.613,0.468,1.075,1.042,1.378,1.75c0.073,0.171,0.149,0.343,0.241,0.505
								c0.031,0.053,0.116,0.104,0.179,0.107c1.21,0.042,2.149,0.532,2.81,1.578c0.365,0.578,0.473,1.182,0.412,1.834
								c-0.018,0.185,0.007,0.282,0.183,0.385c0.767,0.446,1.179,1.106,1.112,2.044c0.776,0.107,1.349,0.521,1.741,1.17
								c0.21,0.347,0.273,0.741,0.216,1.162c-9.686,0-19.354,0-29.021,0c-0.198-1.177,0.546-2.103,2.108-2.636
								c-0.819-2.573,1.702-4.63,4.17-3.74c-0.036-0.724,0.144-1.384,0.652-1.898c0.41-0.415,0.9-0.721,1.501-0.817
								c1.155-0.185,2.328,0.17,3.085,1.611c0.53-0.07,1.043-0.137,1.577-0.207c0.038-0.165,0.065-0.383,0.138-0.585
								c0.623-1.736,1.844-2.787,3.649-3.159c0.212-0.043,0.426-0.074,0.639-0.11C38.301,13.078,38.482,13.078,38.664,13.078z"/>
							<path fill-rule="evenodd" clip-rule="evenodd" fill="#FFFFFF" d="M19.589,26.158c1.842,0,3.684,0,5.555,0
								c0.056,0.674,0.112,1.331,0.165,1.988c0.06,0.751,0.111,1.502,0.175,2.253c0.233,2.728,0.475,5.455,0.706,8.182
								c0.135,1.593,0.25,3.186,0.384,4.777c0.27,3.199,0.546,6.396,0.819,9.595c0.021,0.25,0.04,0.501,0.062,0.768
								c-1.172,0-2.313,0-3.485,0c-0.078-0.513-0.158-1.029-0.236-1.546c-0.111-0.735-0.216-1.473-0.332-2.207
								c-0.358-2.263-0.722-4.525-1.082-6.788c-0.349-2.19-0.694-4.382-1.043-6.573c-0.36-2.263-0.719-4.525-1.083-6.787
								c-0.182-1.134-0.374-2.266-0.562-3.398c-0.006-0.035-0.027-0.067-0.041-0.1C19.589,26.267,19.589,26.212,19.589,26.158z"/>
							<path fill-rule="evenodd" clip-rule="evenodd" fill="#FFFFFF" d="M46.232,53.723c-1.222,0-2.417,0-3.639,0
								c0.043-0.553,0.08-1.093,0.127-1.632c0.192-2.213,0.395-4.424,0.58-6.637c0.173-2.053,0.322-4.108,0.495-6.161
								c0.278-3.308,0.57-6.613,0.852-9.92c0.085-0.995,0.158-1.991,0.231-2.987c0.01-0.132,0.027-0.228,0.193-0.228
								c1.797,0.002,3.594,0.001,5.431,0.001c-0.045,0.331-0.078,0.642-0.13,0.949c-0.101,0.595-0.225,1.187-0.314,1.783
								c-0.264,1.74-0.506,3.483-0.771,5.223c-0.334,2.193-0.684,4.384-1.023,6.577c-0.338,2.174-0.672,4.349-1.009,6.523
								c-0.322,2.075-0.646,4.15-0.969,6.227C46.272,53.531,46.252,53.62,46.232,53.723z"/>
							<path fill-rule="evenodd" clip-rule="evenodd" fill="#FFFFFF" d="M39.832,53.728c-1.127,0-2.234,0-3.363,0
								c0-9.184,0-18.36,0-27.553c1.892,0,3.775,0,5.687,0C41.381,35.36,40.607,44.531,39.832,53.728z"/>
							<path fill-rule="evenodd" clip-rule="evenodd" fill="#FFFFFF" d="M33.645,26.176c0,9.187,0,18.351,0,27.537
								c-1.122,0-2.242,0-3.392,0c-0.773-9.17-1.546-18.344-2.321-27.537C29.848,26.176,31.733,26.176,33.645,26.176z"/>
						</g>
					</g>
				</g>
			</g>
		</g>
	</g>
</g>
</svg>
