<?xml version="1.0" encoding="utf-8"?>
<!-- Generator: Adobe Illustrator 16.0.4, SVG Export Plug-In . SVG Version: 6.00 Build 0)  -->
<!DOCTYPE svg PUBLIC "-//W3C//DTD SVG 1.1//EN" "http://www.w3.org/Graphics/SVG/1.1/DTD/svg11.dtd">
<svg version="1.1" id="Ebene_1" xmlns="http://www.w3.org/2000/svg" xmlns:xlink="http://www.w3.org/1999/xlink" x="0px" y="0px"
	 width="1001.068px" height="121.5px" viewBox="0 0 1001.068 121.5" enable-background="new 0 0 1001.068 121.5"
	 xml:space="preserve">
<g>
	<path fill-rule="evenodd" clip-rule="evenodd" fill="#0F2105" d="M0,103.5c0-28.333,0-56.667,0-85
		c0.469-0.825,1.008-1.618,1.396-2.479C5.322,7.302,12.49,3.284,21.4,4.704c8.43,1.344,15.769,9.125,15.235,17.095
		c-0.424,6.329-0.085,12.71-0.085,19.067c7.312-8.757,13.174-17.811,19.638-26.413c2.599-3.459,6.095-6.808,9.93-8.653
		c7.132-3.433,15.841-0.471,20.974,5.988c4.992,6.282,5.345,14.488,0.702,21.38c-6.01,8.922-12.16,17.748-18.221,26.573
		c7.742,9.842,15.272,19.169,22.524,28.707c6.001,7.895,4.136,19.054-3.908,25.321c-7.723,6.018-18.764,4.706-24.941-2.98
		c-3.025-3.765-6.008-7.562-9.028-11.331c-5.534-6.904-11.082-13.798-16.624-20.696c-0.474,0.132-0.947,0.264-1.421,0.396
		c0,7.621,0.618,15.304-0.146,22.848c-1.12,11.054-10.694,17.191-21.611,15.128C6.524,115.641,3.072,109.872,0,103.5z"/>
	<path fill-rule="evenodd" clip-rule="evenodd" fill="#2BDE73" d="M393,119.5c-2.56-0.991-5.111-2.005-7.681-2.969
		c-7.333-2.751-13.761-6.832-18.178-13.414c-7.464-11.122-3.237-24.837,8.481-28.067c5.933-1.635,11.134,0.108,15.995,3.475
		c3.415,2.364,6.777,4.826,10.334,6.957c2.427,1.454,5.286,1.996,6.92-1.12c1.724-3.286,0.284-6.062-2.86-7.382
		c-6.43-2.7-13.116-4.794-19.531-7.526c-20.341-8.666-27.186-33.373-14.205-51.325c5.708-7.894,13.734-12.399,23.127-14.621
		c0.895-0.212,1.732-0.666,2.597-1.007c6,0,12,0,18,0c6.358,2.972,13.209,5.217,18.947,9.104c6.663,4.514,9.19,11.621,7.211,19.784
		c-1.973,8.139-9.529,13.008-17.502,10.451c-4.622-1.481-8.619-4.82-13.082-6.931c-2.551-1.207-5.446-1.836-8.255-2.219
		c-0.534-0.072-2.263,2.951-1.957,3.322c1.8,2.182,3.73,4.662,6.19,5.815c6.9,3.235,14.418,5.248,21.086,8.861
		c20.197,10.943,24.83,38.166,9.75,55.604c-5.761,6.662-13.346,10.274-21.832,12.182c-0.885,0.199-1.707,0.677-2.558,1.025
		C407,119.5,400,119.5,393,119.5z"/>
	<path fill-rule="evenodd" clip-rule="evenodd" fill="#2BDE73" d="M718.959,73.925c3.162,5.163,6.373,10.029,9.2,15.108
		c4.229,7.6,3.581,16.211-1.333,22.001c-4.846,5.707-13.371,8.365-20.389,5.271c-3.567-1.572-6.95-4.579-9.258-7.773
		c-4.467-6.184-8.103-12.966-12.108-19.483c-0.644-1.047-1.42-2.012-2.914-4.109c0,5.564,0.059,9.812-0.012,14.058
		c-0.167,10.043-6.733,17.535-16.069,18.417c-10.14,0.958-18.005-5.071-19.935-15.453c-0.483-2.601-0.676-5.288-0.683-7.938
		c-0.052-21.979-0.045-43.959-0.024-65.939c0.016-15.698,6.883-22.607,22.514-22.566c9.984,0.025,20.174-1.044,29.913,0.558
		c27.878,4.585,41.488,36.253,26.492,60.219C722.774,68.817,720.918,71.169,718.959,73.925z"/>
	<path fill-rule="evenodd" clip-rule="evenodd" fill="#2BDE73" d="M952.061,85.432c0,4.964,0.181,9.94-0.042,14.896
		c-0.311,6.976-3.553,12.405-9.853,15.501c-6.362,3.128-12.842,2.721-18.68-1.356c-5.497-3.843-7.794-9.752-7.845-16.149
		c-0.201-24.715-0.219-49.433-0.017-74.148c0.08-9.828,5.787-16.685,15.702-17.843c13.022-1.52,26.256-2.093,39.215,0.515
		c15.539,3.127,28.008,18.117,29.725,33.811c1.277,11.668-2.146,21.631-9.36,30.497c-1.718,2.106-1.806,3.606-0.327,5.912
		c3.141,4.91,6.231,9.911,8.734,15.161c3.742,7.845,1.298,16.794-5.413,21.829c-6.702,5.035-16.429,4.997-22.539-0.387
		c-2.016-1.776-3.62-4.115-5.068-6.417c-4.573-7.261-8.985-14.627-13.46-21.951C952.577,85.343,952.321,85.388,952.061,85.432z"/>
	<path fill-rule="evenodd" clip-rule="evenodd" fill="#2BDE73" d="M529.02,99.75c1.196-4.188,1.701-7.54,3.07-10.492
		c11.403-24.579,22.998-49.068,34.462-73.619c3.372-7.224,8.893-11.045,16.845-11.11c8.14-0.067,13.953,3.699,17.422,11.081
		c11.664,24.826,23.364,49.635,34.985,74.48c3.562,7.614,3.18,14.96-2.662,21.36c-5.35,5.861-12.071,7.336-19.602,5.059
		c-5.544-1.678-8.76-5.971-11.098-10.842c-1.301-2.708-2.958-3.44-5.774-3.384c-8.16,0.163-16.333,0.268-24.484-0.035
		c-3.85-0.143-5.792,1.046-7.613,4.576c-6.45,12.498-22.355,14.58-30.555,3.978C531.519,107.572,530.52,103.185,529.02,99.75z"/>
	<path fill-rule="evenodd" clip-rule="evenodd" fill="#2BDE73" d="M870.833,40.07c0,2.585,0,4.519,0,7.285
		c5.15,0,10.24-0.178,15.312,0.039c9.532,0.406,14.825,7.257,13.028,16.577c-1.041,5.399-4.624,8.835-10.717,9.472
		c-5.738,0.599-11.534,0.657-17.584,0.967c0,2.465,0,4.687,0,8.085c7.523,0,14.84-0.543,22.044,0.123
		c11.901,1.101,18.398,12.283,14.133,23.433c-2.73,7.14-8.507,10.182-15.622,10.331c-13.316,0.279-26.65,0.336-39.962-0.046
		c-10.84-0.312-17.297-6.391-17.469-17.185c-0.406-25.622-0.481-51.261-0.044-76.882c0.176-10.299,7.297-16.537,17.481-16.703
		c13.319-0.217,26.647-0.224,39.967,0c9.707,0.162,16.564,6.91,17.021,16.11c0.484,9.743-5.506,16.724-15.565,17.872
		c-3.625,0.413-7.302,0.421-10.958,0.504C878.42,40.133,874.938,40.07,870.833,40.07z"/>
	<path fill-rule="evenodd" clip-rule="evenodd" fill="#2BDE73" d="M477.841,39.483c-4.784,0-8.95,0.356-13.032-0.08
		c-6.746-0.722-12.052-4.06-14.463-10.633c-2.434-6.633-1.399-13.234,3.831-17.914c2.965-2.652,7.571-4.746,11.492-4.841
		c20.461-0.493,40.941-0.411,61.411-0.208c7.095,0.07,12.354,3.688,14.85,10.576c2.43,6.709,1.063,12.776-3.622,18.079
		c-3.456,3.911-8.099,5.007-13.063,5.112c-3.288,0.069-6.578,0.013-10.404,0.013c0,2.521,0.018,4.469-0.002,6.416
		c-0.178,17.97,0.087,35.96-0.711,53.902c-0.498,11.219-8.297,17.799-18.488,17.431c-10.484-0.379-17.404-7.57-17.581-19.017
		c-0.271-17.477-0.164-34.96-0.216-52.44C477.836,44.066,477.841,42.253,477.841,39.483z"/>
	<path fill-rule="evenodd" clip-rule="evenodd" fill="#2BDE73" d="M761.841,39.528c-4.602,0-8.429,0.216-12.224-0.043
		c-9.464-0.646-16.025-7.242-16.438-16.247c-0.405-8.873,5.637-16.254,15.199-17.073c9.426-0.807,18.947-0.591,28.427-0.639
		c11.153-0.056,22.331-0.344,33.455,0.258c12.612,0.683,19.81,11.334,15.785,22.48c-2.517,6.967-7.611,10.754-14.991,11.192
		c-3.795,0.227-7.614,0.04-12.214,0.04c0,2.369,0.019,4.28-0.003,6.19c-0.207,18.301,0.088,36.626-0.808,54.893
		c-0.613,12.518-11.544,19.325-23.492,15.906c-7.568-2.165-12.359-8.634-12.482-17.85c-0.235-17.645-0.161-35.294-0.214-52.94
		C761.837,43.899,761.841,42.103,761.841,39.528z"/>
	<path fill-rule="evenodd" clip-rule="evenodd" fill="#0F2105" d="M299.588,41.045c6.71-9.68,13.309-19.439,20.169-29.012
		c4.5-6.28,10.882-8.748,18.405-7.033c7.597,1.731,12.588,6.59,14.387,14.275c1.247,5.322-0.208,10.154-3.302,14.61
		c-5.957,8.578-11.824,17.218-17.759,25.878c7.446,9.439,14.675,18.562,21.855,27.723c5.243,6.69,5.593,14.943,1.009,21.774
		c-4.669,6.956-12.955,10.115-20.991,7.225c-3.083-1.108-6.096-3.447-8.224-5.992c-8.719-10.433-17.083-21.161-26.628-33.093
		c0,6.094,0.03,10.764-0.011,15.432c-0.023,2.657,0.02,5.335-0.281,7.968c-1.203,10.52-8.162,16.866-18.138,16.698
		c-10.11-0.171-17.398-7.033-18.011-17.587c-0.434-7.469-0.22-14.979-0.23-22.47c-0.023-17.484-0.092-34.97,0.022-52.454
		c0.079-11.98,6.496-19.617,16.803-20.427c11.137-0.874,19.716,6.896,19.834,18.036c0.065,6.104,0.012,12.208,0.012,18.312
		C298.87,40.954,299.229,41,299.588,41.045z"/>
	<path fill-rule="evenodd" clip-rule="evenodd" fill="#0F2105" d="M196.438,120.102c-1.861-0.558-3.717-1.134-5.584-1.671
		c-24.762-7.119-40.215-23.227-44.183-48.673c-3.305-21.196,3.779-39.367,20.473-53.308C183.705,2.625,202.69-0.766,222.908,5.576
		c13.453,4.219,25.051,11.896,31.353,25.411c3.125,6.704,1.574,15.113-3.319,19.971c-5.737,5.696-14.042,7.497-21.023,3.82
		c-3.055-1.611-5.613-4.392-7.997-7.004c-6.161-6.756-13.531-9.697-22.521-7.507c-8.64,2.105-15.079,9.528-15.876,17.828
		c-0.996,10.372,3.278,18.625,11.854,22.889c7.52,3.737,17.549,2.206,24.032-3.722c1.941-1.774,3.753-3.688,5.67-5.489
		c5.509-5.179,12.057-6.4,18.915-3.815c7.006,2.638,11.36,7.984,11.792,15.67c0.385,6.854-2.845,12.492-7.438,17.26
		c-10.084,10.475-22.059,17.343-36.841,18.588c-0.252,0.021-0.476,0.41-0.712,0.627
		C206.011,120.102,201.225,120.102,196.438,120.102z"/>
	<path fill-rule="evenodd" clip-rule="evenodd" fill="#0F2105" d="M138.996,61.087c0.004,12.312,0.176,24.627-0.059,36.934
		c-0.148,7.79-3.17,14.406-10.611,17.811c-6.917,3.165-13.65,2.085-19.649-2.649c-5.203-4.106-6.405-10.048-6.445-16.112
		c-0.156-23.624-0.201-47.251-0.006-70.874c0.094-11.447,4.371-18.166,12.252-20.71c12.898-4.162,24.126,4.239,24.456,18.667
		C139.214,36.458,138.992,48.775,138.996,61.087z"/>
</g>
</svg>
