<?xml version="1.0" encoding="utf-8"?>
<!-- Generator: Adobe Illustrator 16.0.4, SVG Export Plug-In . SVG Version: 6.00 Build 0)  -->
<!DOCTYPE svg PUBLIC "-//W3C//DTD SVG 1.1//EN" "http://www.w3.org/Graphics/SVG/1.1/DTD/svg11.dtd">
<svg version="1.1" id="Ebene_1" xmlns="http://www.w3.org/2000/svg" xmlns:xlink="http://www.w3.org/1999/xlink" x="0px" y="0px"
	 width="240px" height="40px" viewBox="0 0 240 40" enable-background="new 0 0 240 40" xml:space="preserve">
<g>
	<polygon fill="#FFFFFF" points="182.943,2.883 237.273,2.881 237.273,37.481 182.951,37.482 	"/>
	<path fill="#EE7D00" d="M237.082,22.124c0,0-14.847,10.476-42.036,15.164h42.036V22.124z"/>
	<path fill="#1D1D1B" d="M237.273,2.682l-54.522,0.005v34.995h54.719l-0.003-35H237.273z M237.075,3.078c0,0.388,0,33.816,0,34.206
		c-0.392,0-53.536,0-53.929,0c0-0.387-0.002-33.815-0.002-34.205C183.538,3.079,236.68,3.078,237.075,3.078z"/>
	<path fill="#1D1D1B" d="M187.537,13.391h-2.269v7.918h2.256c1.199,0,2.065-0.283,2.825-0.914c0.903-0.748,1.438-1.875,1.438-3.039
		C191.787,15.019,190.042,13.391,187.537,13.391z M189.34,19.34c-0.484,0.438-1.114,0.629-2.113,0.629h-0.414v-5.236h0.414
		c0.999,0,1.604,0.178,2.113,0.64c0.534,0.476,0.856,1.213,0.856,1.971C190.196,18.104,189.874,18.864,189.34,19.34z"/>
	<rect x="192.498" y="13.391" fill="#1D1D1B" width="1.543" height="7.918"/>
	<path fill="#1D1D1B" d="M197.819,16.43c-0.928-0.343-1.2-0.569-1.2-0.997c0-0.499,0.485-0.878,1.15-0.878
		c0.463,0,0.845,0.19,1.247,0.642l0.808-1.059c-0.664-0.581-1.458-0.877-2.327-0.877c-1.401,0-2.47,0.972-2.47,2.269
		c0,1.091,0.498,1.649,1.948,2.172c0.605,0.212,0.912,0.354,1.067,0.45c0.309,0.202,0.463,0.487,0.463,0.82
		c0,0.641-0.51,1.117-1.198,1.117c-0.736,0-1.33-0.369-1.686-1.057l-0.998,0.961c0.712,1.045,1.565,1.507,2.741,1.507
		c1.605,0,2.731-1.066,2.731-2.599C200.097,17.642,199.576,17.072,197.819,16.43z"/>
	<path fill="#1D1D1B" d="M200.584,17.356c0,2.327,1.827,4.132,4.179,4.132c0.666,0,1.234-0.131,1.937-0.462v-1.818
		c-0.617,0.618-1.164,0.867-1.865,0.867c-1.554,0-2.659-1.127-2.659-2.731c0-1.52,1.139-2.719,2.588-2.719
		c0.737,0,1.293,0.263,1.937,0.891v-1.817c-0.678-0.345-1.236-0.487-1.899-0.487C202.46,13.212,200.584,15.054,200.584,17.356z"/>
	<polygon fill="#1D1D1B" points="218.944,18.71 216.834,13.391 215.147,13.391 218.507,21.512 219.338,21.512 222.759,13.391 
		221.085,13.391 	"/>
	<polygon fill="#1D1D1B" points="223.457,21.31 227.838,21.31 227.838,19.969 225.001,19.969 225.001,17.832 227.732,17.832 
		227.732,16.49 225.001,16.49 225.001,14.733 227.838,14.733 227.838,13.391 223.457,13.391 	"/>
	<path fill="#1D1D1B" d="M233.953,15.729c0-1.482-1.021-2.338-2.803-2.338h-2.289v7.918h1.542v-3.181h0.201l2.138,3.181h1.899
		l-2.492-3.336C233.312,17.737,233.953,16.942,233.953,15.729z M230.854,17.037h-0.45v-2.398h0.476c0.962,0,1.484,0.403,1.484,1.174
		C232.363,16.608,231.841,17.037,230.854,17.037z"/>
	<g>
		<g>
			<linearGradient id="SVGID_1_" gradientUnits="userSpaceOnUse" x1="213.5732" y1="20.7539" x2="210.6566" y2="16.1874">
				<stop  offset="0" style="stop-color:#F59F00"/>
				<stop  offset="0.2298" style="stop-color:#F49A00"/>
				<stop  offset="0.4895" style="stop-color:#F28D00"/>
				<stop  offset="0.6196" style="stop-color:#F08300"/>
				<stop  offset="0.7642" style="stop-color:#EE7902"/>
				<stop  offset="1" style="stop-color:#EC6D05"/>
			</linearGradient>
			<circle fill="url(#SVGID_1_)" cx="211.417" cy="17.378" r="4.212"/>
			<linearGradient id="SVGID_2_" gradientUnits="userSpaceOnUse" x1="213.1123" y1="20.6924" x2="208.8495" y2="12.3605">
				<stop  offset="0" style="stop-color:#F08300;stop-opacity:0"/>
				<stop  offset="0.3669" style="stop-color:#DD6A14;stop-opacity:0.2766"/>
				<stop  offset="0.7066" style="stop-color:#D25B21;stop-opacity:0.5327"/>
				<stop  offset="0.9816" style="stop-color:#CE5625;stop-opacity:0.74"/>
			</linearGradient>
			<circle opacity="0.65" fill="url(#SVGID_2_)" cx="211.417" cy="17.378" r="4.212"/>
		</g>
		<g opacity="0.5">
			<defs>
				<circle id="SVGID_3_" opacity="0.5" cx="211.416" cy="17.379" r="4.212"/>
			</defs>
			<clipPath id="SVGID_4_">
				<use xlink:href="#SVGID_3_"  overflow="visible"/>
			</clipPath>
			<g clip-path="url(#SVGID_4_)">
				<circle fill="#1D1D1B" cx="211.429" cy="17.392" r="4.297"/>
				<circle fill="#1E1E1C" cx="211.432" cy="17.395" r="4.297"/>
				<circle fill="#1F1F1D" cx="211.434" cy="17.398" r="4.296"/>
				<circle fill="#20201E" cx="211.437" cy="17.4" r="4.296"/>
				<circle fill="#21211F" cx="211.439" cy="17.403" r="4.295"/>
				<circle fill="#21211F" cx="211.441" cy="17.406" r="4.295"/>
				<circle fill="#222220" cx="211.443" cy="17.408" r="4.295"/>
				<circle fill="#232321" cx="211.446" cy="17.411" r="4.294"/>
				<circle fill="#242422" cx="211.448" cy="17.414" r="4.294"/>
				<circle fill="#252523" cx="211.45" cy="17.417" r="4.293"/>
				<circle fill="#262624" cx="211.453" cy="17.419" r="4.293"/>
				<circle fill="#272725" cx="211.455" cy="17.422" r="4.293"/>
				<circle fill="#282826" cx="211.458" cy="17.424" r="4.292"/>
				<circle fill="#292927" cx="211.46" cy="17.428" r="4.292"/>
				<circle fill="#292928" cx="211.462" cy="17.43" r="4.291"/>
				<circle fill="#2A2A28" cx="211.465" cy="17.433" r="4.291"/>
				<circle fill="#2B2B29" cx="211.467" cy="17.435" r="4.29"/>
				<circle fill="#2C2C2A" cx="211.47" cy="17.438" r="4.29"/>
				<circle fill="#2D2D2B" cx="211.472" cy="17.441" r="4.29"/>
				<circle fill="#2E2E2C" cx="211.474" cy="17.443" r="4.289"/>
				<circle fill="#2F2F2D" cx="211.477" cy="17.446" r="4.289"/>
				<circle fill="#30302E" cx="211.479" cy="17.449" r="4.289"/>
				<circle fill="#30302F" cx="211.48" cy="17.451" r="4.288"/>
				<circle fill="#313130" cx="211.483" cy="17.454" r="4.287"/>
				<circle fill="#323230" cx="211.485" cy="17.456" r="4.287"/>
				<circle fill="#333331" cx="211.487" cy="17.459" r="4.287"/>
				<circle fill="#343432" cx="211.49" cy="17.462" r="4.286"/>
				<circle fill="#353533" cx="211.492" cy="17.465" r="4.285"/>
				<circle fill="#363634" cx="211.495" cy="17.467" r="4.286"/>
				<circle fill="#373735" cx="211.497" cy="17.47" r="4.285"/>
				<circle fill="#383836" cx="211.499" cy="17.473" r="4.285"/>
				<circle fill="#383837" cx="211.502" cy="17.476" r="4.284"/>
				<circle fill="#393938" cx="211.504" cy="17.478" r="4.284"/>
				<circle fill="#3A3A39" cx="211.506" cy="17.48" r="4.283"/>
				<circle fill="#3B3B39" cx="211.509" cy="17.484" r="4.283"/>
				<circle fill="#3C3C3A" cx="211.511" cy="17.486" r="4.282"/>
				<circle fill="#3D3D3B" cx="211.514" cy="17.489" r="4.282"/>
				<circle fill="#3E3E3C" cx="211.516" cy="17.492" r="4.282"/>
				<circle fill="#3F3F3D" cx="211.519" cy="17.494" r="4.281"/>
				<circle fill="#40403E" cx="211.521" cy="17.497" r="4.281"/>
				<circle fill="#40403F" cx="211.522" cy="17.5" r="4.281"/>
				<circle fill="#414140" cx="211.524" cy="17.502" r="4.28"/>
				<circle fill="#424241" cx="211.527" cy="17.505" r="4.28"/>
				<circle fill="#434342" cx="211.529" cy="17.508" r="4.279"/>
				<circle fill="#444442" cx="211.532" cy="17.51" r="4.279"/>
				<circle fill="#454543" cx="211.534" cy="17.513" r="4.279"/>
				<circle fill="#464644" cx="211.537" cy="17.516" r="4.278"/>
				<circle fill="#474745" cx="211.539" cy="17.518" r="4.278"/>
				<circle fill="#484846" cx="211.541" cy="17.521" r="4.277"/>
				<circle fill="#484847" cx="211.543" cy="17.524" r="4.277"/>
				<circle fill="#494948" cx="211.546" cy="17.527" r="4.276"/>
				<circle fill="#4A4A49" cx="211.548" cy="17.529" r="4.275"/>
				<circle fill="#4B4B4A" cx="211.551" cy="17.531" r="4.275"/>
				<circle fill="#4C4C4A" cx="211.553" cy="17.535" r="4.275"/>
				<circle fill="#4D4D4B" cx="211.556" cy="17.538" r="4.275"/>
				<circle fill="#4E4E4C" cx="211.558" cy="17.54" r="4.274"/>
				<circle fill="#4F4F4D" cx="211.56" cy="17.542" r="4.274"/>
				<circle fill="#4F4F4E" cx="211.562" cy="17.545" r="4.273"/>
				<circle fill="#50504F" cx="211.565" cy="17.548" r="4.273"/>
				<circle fill="#515150" cx="211.567" cy="17.551" r="4.272"/>
				<circle fill="#525251" cx="211.569" cy="17.553" r="4.272"/>
				<circle fill="#535352" cx="211.571" cy="17.556" r="4.271"/>
				<circle fill="#545453" cx="211.574" cy="17.559" r="4.271"/>
				<circle fill="#555553" cx="211.576" cy="17.561" r="4.271"/>
				<circle fill="#565654" cx="211.578" cy="17.564" r="4.27"/>
				<circle fill="#575755" cx="211.581" cy="17.566" r="4.27"/>
				<circle fill="#575756" cx="211.583" cy="17.57" r="4.269"/>
				<circle fill="#585857" cx="211.585" cy="17.572" r="4.269"/>
				<circle fill="#595958" cx="211.588" cy="17.574" r="4.269"/>
				<circle fill="#5A5A59" cx="211.591" cy="17.577" r="4.268"/>
				<circle fill="#5B5B5A" cx="211.593" cy="17.58" r="4.268"/>
				<circle fill="#5C5C5B" cx="211.595" cy="17.583" r="4.267"/>
				<circle fill="#5D5D5B" cx="211.597" cy="17.585" r="4.267"/>
				<circle fill="#5E5E5C" cx="211.6" cy="17.588" r="4.266"/>
				<circle fill="#5F5F5D" cx="211.603" cy="17.591" r="4.266"/>
				<circle fill="#5F5F5E" cx="211.604" cy="17.594" r="4.266"/>
				<circle fill="#60605F" cx="211.606" cy="17.596" r="4.265"/>
				<circle fill="#616160" cx="211.608" cy="17.599" r="4.265"/>
				<circle fill="#626261" cx="211.611" cy="17.602" r="4.264"/>
				<circle fill="#636362" cx="211.614" cy="17.604" r="4.264"/>
				<circle fill="#646463" cx="211.615" cy="17.606" r="4.264"/>
				<circle fill="#656564" cx="211.618" cy="17.61" r="4.263"/>
				<circle fill="#666664" cx="211.621" cy="17.612" r="4.263"/>
				<circle fill="#676765" cx="211.623" cy="17.615" r="4.262"/>
				<circle fill="#676766" cx="211.625" cy="17.617" r="4.262"/>
				<circle fill="#686867" cx="211.628" cy="17.62" r="4.261"/>
				<circle fill="#696968" cx="211.63" cy="17.624" r="4.261"/>
				<circle fill="#6A6A69" cx="211.632" cy="17.626" r="4.261"/>
				<circle fill="#6B6B6A" cx="211.634" cy="17.628" r="4.26"/>
				<circle fill="#6C6C6B" cx="211.637" cy="17.631" r="4.26"/>
				<circle fill="#6D6D6C" cx="211.64" cy="17.634" r="4.259"/>
				<circle fill="#6E6E6C" cx="211.642" cy="17.636" r="4.259"/>
				<circle fill="#6E6E6D" cx="211.644" cy="17.639" r="4.259"/>
				<circle fill="#6F6F6E" cx="211.646" cy="17.642" r="4.258"/>
				<circle fill="#70706F" cx="211.648" cy="17.645" r="4.258"/>
				<circle fill="#717170" cx="211.651" cy="17.647" r="4.257"/>
				<circle fill="#727271" cx="211.653" cy="17.649" r="4.257"/>
				<circle fill="#737372" cx="211.655" cy="17.653" r="4.256"/>
				<circle fill="#747473" cx="211.658" cy="17.656" r="4.256"/>
				<circle fill="#757574" cx="211.66" cy="17.658" r="4.256"/>
				<circle fill="#767675" cx="211.662" cy="17.661" r="4.255"/>
				<circle fill="#767675" cx="211.665" cy="17.663" r="4.255"/>
				<circle fill="#777776" cx="211.667" cy="17.666" r="4.254"/>
				<circle fill="#787877" cx="211.669" cy="17.669" r="4.254"/>
				<circle fill="#797978" cx="211.672" cy="17.671" r="4.253"/>
				<circle fill="#7A7A79" cx="211.674" cy="17.674" r="4.253"/>
				<circle fill="#7B7B7A" cx="211.677" cy="17.677" r="4.253"/>
				<circle fill="#7C7C7B" cx="211.679" cy="17.679" r="4.252"/>
				<circle fill="#7D7D7C" cx="211.681" cy="17.682" r="4.251"/>
				<circle fill="#7E7E7D" cx="211.684" cy="17.685" r="4.252"/>
				<circle fill="#7E7E7E" cx="211.686" cy="17.688" r="4.251"/>
				<circle fill="#7F7F7E" cx="211.688" cy="17.69" r="4.25"/>
				<circle fill="#80807F" cx="211.69" cy="17.693" r="4.25"/>
				<circle fill="#818180" cx="211.692" cy="17.696" r="4.25"/>
				<circle fill="#828281" cx="211.695" cy="17.698" r="4.249"/>
				<circle fill="#838382" cx="211.697" cy="17.701" r="4.249"/>
				<circle fill="#848483" cx="211.699" cy="17.704" r="4.249"/>
				<circle fill="#858584" cx="211.702" cy="17.706" r="4.248"/>
				<circle fill="#858585" cx="211.704" cy="17.709" r="4.248"/>
				<circle fill="#868686" cx="211.707" cy="17.712" r="4.247"/>
				<circle fill="#878786" cx="211.709" cy="17.714" r="4.247"/>
				<circle fill="#888887" cx="211.711" cy="17.717" r="4.246"/>
				<circle fill="#898988" cx="211.714" cy="17.72" r="4.246"/>
				<circle fill="#8A8A89" cx="211.716" cy="17.722" r="4.246"/>
				<circle fill="#8B8B8A" cx="211.718" cy="17.725" r="4.245"/>
				<circle fill="#8C8C8B" cx="211.721" cy="17.728" r="4.245"/>
				<circle fill="#8D8D8C" cx="211.723" cy="17.73" r="4.244"/>
				<circle fill="#8D8D8D" cx="211.726" cy="17.733" r="4.244"/>
				<circle fill="#8E8E8E" cx="211.728" cy="17.736" r="4.244"/>
				<circle fill="#8F8F8F" cx="211.729" cy="17.739" r="4.243"/>
				<circle fill="#90908F" cx="211.732" cy="17.741" r="4.243"/>
				<circle fill="#919190" cx="211.734" cy="17.744" r="4.242"/>
				<circle fill="#929291" cx="211.737" cy="17.747" r="4.242"/>
				<circle fill="#939392" cx="211.739" cy="17.749" r="4.241"/>
				<circle fill="#949493" cx="211.741" cy="17.752" r="4.241"/>
				<circle fill="#959594" cx="211.744" cy="17.754" r="4.241"/>
				<circle fill="#959595" cx="211.746" cy="17.757" r="4.24"/>
				<circle fill="#969696" cx="211.749" cy="17.76" r="4.24"/>
				<circle fill="#979797" cx="211.751" cy="17.763" r="4.239"/>
				<circle fill="#989897" cx="211.753" cy="17.765" r="4.239"/>
				<circle fill="#999998" cx="211.756" cy="17.768" r="4.239"/>
				<circle fill="#9A9A99" cx="211.758" cy="17.771" r="4.238"/>
				<circle fill="#9B9B9A" cx="211.761" cy="17.773" r="4.238"/>
				<circle fill="#9C9C9B" cx="211.763" cy="17.776" r="4.237"/>
				<circle fill="#9D9D9C" cx="211.765" cy="17.779" r="4.237"/>
				<circle fill="#9D9D9D" cx="211.768" cy="17.781" r="4.236"/>
				<circle fill="#9E9E9E" cx="211.77" cy="17.784" r="4.236"/>
				<circle fill="#9F9F9F" cx="211.772" cy="17.787" r="4.236"/>
				<circle fill="#A0A0A0" cx="211.774" cy="17.789" r="4.235"/>
				<circle fill="#A1A1A0" cx="211.776" cy="17.792" r="4.235"/>
				<circle fill="#A2A2A1" cx="211.778" cy="17.795" r="4.234"/>
				<circle fill="#A3A3A2" cx="211.781" cy="17.797" r="4.234"/>
				<circle fill="#A4A4A3" cx="211.783" cy="17.8" r="4.234"/>
				<circle fill="#A4A4A4" cx="211.786" cy="17.803" r="4.233"/>
				<circle fill="#A5A5A5" cx="211.788" cy="17.806" r="4.232"/>
				<circle fill="#A6A6A6" cx="211.79" cy="17.809" r="4.232"/>
				<circle fill="#A7A7A7" cx="211.793" cy="17.811" r="4.232"/>
				<circle fill="#A8A8A8" cx="211.795" cy="17.813" r="4.231"/>
				<circle fill="#A9A9A8" cx="211.798" cy="17.816" r="4.231"/>
				<circle fill="#AAAAA9" cx="211.8" cy="17.819" r="4.23"/>
				<circle fill="#ABABAA" cx="211.802" cy="17.822" r="4.23"/>
				<circle fill="#ACACAB" cx="211.805" cy="17.825" r="4.23"/>
				<circle fill="#ACACAC" cx="211.807" cy="17.827" r="4.229"/>
				<circle fill="#ADADAD" cx="211.81" cy="17.83" r="4.229"/>
				<circle fill="#AEAEAE" cx="211.812" cy="17.832" r="4.228"/>
				<circle fill="#AFAFAF" cx="211.813" cy="17.835" r="4.228"/>
				<circle fill="#B0B0B0" cx="211.815" cy="17.838" r="4.228"/>
				<circle fill="#B1B1B1" cx="211.818" cy="17.84" r="4.227"/>
				<circle fill="#B2B2B1" cx="211.82" cy="17.843" r="4.227"/>
				<circle fill="#B3B3B2" cx="211.823" cy="17.846" r="4.226"/>
				<circle fill="#B4B4B3" cx="211.825" cy="17.848" r="4.226"/>
				<circle fill="#B4B4B4" cx="211.827" cy="17.851" r="4.225"/>
				<circle fill="#B5B5B5" cx="211.83" cy="17.854" r="4.225"/>
				<circle fill="#B6B6B6" cx="211.832" cy="17.856" r="4.225"/>
				<circle fill="#B7B7B7" cx="211.835" cy="17.859" r="4.224"/>
				<circle fill="#B8B8B8" cx="211.837" cy="17.862" r="4.224"/>
				<circle fill="#B9B9B9" cx="211.839" cy="17.865" r="4.223"/>
				<circle fill="#BABABA" cx="211.842" cy="17.867" r="4.223"/>
				<circle fill="#BBBBBA" cx="211.844" cy="17.87" r="4.223"/>
				<circle fill="#BCBCBB" cx="211.846" cy="17.873" r="4.222"/>
				<circle fill="#BCBCBC" cx="211.849" cy="17.875" r="4.221"/>
				<circle fill="#BDBDBD" cx="211.851" cy="17.878" r="4.221"/>
				<circle fill="#BEBEBE" cx="211.853" cy="17.881" r="4.221"/>
				<circle fill="#BFBFBF" cx="211.855" cy="17.883" r="4.22"/>
				<circle fill="#C0C0C0" cx="211.857" cy="17.886" r="4.22"/>
				<circle fill="#C1C1C1" cx="211.86" cy="17.889" r="4.22"/>
				<circle fill="#C2C2C2" cx="211.862" cy="17.891" r="4.219"/>
				<circle fill="#C3C3C2" cx="211.864" cy="17.894" r="4.219"/>
				<circle fill="#C3C3C3" cx="211.867" cy="17.897" r="4.219"/>
				<circle fill="#C4C4C4" cx="211.869" cy="17.899" r="4.218"/>
				<circle fill="#C5C5C5" cx="211.872" cy="17.902" r="4.218"/>
				<circle fill="#C6C6C6" cx="211.874" cy="17.905" r="4.217"/>
				<circle fill="#C7C7C7" cx="211.876" cy="17.907" r="4.217"/>
				<circle fill="#C8C8C8" cx="211.879" cy="17.911" r="4.216"/>
				<circle fill="#C9C9C9" cx="211.881" cy="17.913" r="4.216"/>
				<circle fill="#CACACA" cx="211.884" cy="17.916" r="4.215"/>
				<circle fill="#CBCBCB" cx="211.886" cy="17.918" r="4.215"/>
				<circle fill="#CBCBCB" cx="211.888" cy="17.921" r="4.215"/>
				<circle fill="#CCCCCC" cx="211.891" cy="17.924" r="4.214"/>
				<circle fill="#CDCDCD" cx="211.894" cy="17.927" r="4.214"/>
				<circle fill="#CECECE" cx="211.896" cy="17.929" r="4.214"/>
				<circle fill="#CFCFCF" cx="211.897" cy="17.932" r="4.211"/>
				<circle opacity="0.995" fill="#CFCFCF" cx="211.898" cy="17.934" r="4.213"/>
				<circle opacity="0.9901" fill="#CFCFCF" cx="211.902" cy="17.937" r="4.213"/>
				<circle opacity="0.9851" fill="#D0D0D0" cx="211.903" cy="17.939" r="4.213"/>
				<circle opacity="0.9801" fill="#D0D0D0" cx="211.905" cy="17.941" r="4.213"/>
				<circle opacity="0.9751" fill="#D0D0D0" cx="211.907" cy="17.944" r="4.213"/>
				<circle opacity="0.9702" fill="#D0D0D0" cx="211.91" cy="17.946" r="4.213"/>
				<circle opacity="0.9652" fill="#D1D1D1" cx="211.911" cy="17.948" r="4.213"/>
				<circle opacity="0.9602" fill="#D1D1D1" cx="211.913" cy="17.951" r="4.213"/>
				<circle opacity="0.9552" fill="#D1D1D1" cx="211.915" cy="17.953" r="4.213"/>
				<circle opacity="0.9502" fill="#D1D1D1" cx="211.918" cy="17.956" r="4.213"/>
				<circle opacity="0.9453" fill="#D2D2D2" cx="211.92" cy="17.958" r="4.213"/>
				<circle opacity="0.9403" fill="#D2D2D2" cx="211.921" cy="17.961" r="4.213"/>
				<circle opacity="0.9353" fill="#D2D2D2" cx="211.924" cy="17.963" r="4.213"/>
				<circle opacity="0.9303" fill="#D2D2D2" cx="211.926" cy="17.966" r="4.213"/>
				<circle opacity="0.9254" fill="#D3D3D3" cx="211.928" cy="17.968" r="4.213"/>
				<circle opacity="0.9204" fill="#D3D3D3" cx="211.93" cy="17.97" r="4.213"/>
				<circle opacity="0.9154" fill="#D3D3D3" cx="211.931" cy="17.973" r="4.213"/>
				<circle opacity="0.9104" fill="#D3D3D3" cx="211.934" cy="17.975" r="4.213"/>
				<circle opacity="0.9055" fill="#D4D4D4" cx="211.936" cy="17.978" r="4.213"/>
				<circle opacity="0.9005" fill="#D4D4D4" cx="211.938" cy="17.98" r="4.213"/>
				<circle opacity="0.8955" fill="#D4D4D4" cx="211.939" cy="17.983" r="4.213"/>
				<circle opacity="0.8905" fill="#D4D4D4" cx="211.942" cy="17.985" r="4.213"/>
				<circle opacity="0.8856" fill="#D4D4D4" cx="211.943" cy="17.987" r="4.213"/>
				<circle opacity="0.8806" fill="#D5D5D5" cx="211.945" cy="17.99" r="4.213"/>
				<circle opacity="0.8756" fill="#D5D5D5" cx="211.947" cy="17.992" r="4.213"/>
				<circle opacity="0.8706" fill="#D5D5D5" cx="211.95" cy="17.995" r="4.213"/>
				<circle opacity="0.8657" fill="#D5D5D5" cx="211.952" cy="17.997" r="4.213"/>
				<circle opacity="0.8607" fill="#D6D6D6" cx="211.953" cy="17.999" r="4.213"/>
				<circle opacity="0.8557" fill="#D6D6D6" cx="211.956" cy="18.002" r="4.213"/>
				<circle opacity="0.8507" fill="#D6D6D6" cx="211.958" cy="18.004" r="4.212"/>
				<circle opacity="0.8458" fill="#D6D6D6" cx="211.96" cy="18.007" r="4.213"/>
				<circle opacity="0.8408" fill="#D7D7D7" cx="211.962" cy="18.009" r="4.213"/>
				<circle opacity="0.8358" fill="#D7D7D7" cx="211.964" cy="18.011" r="4.213"/>
				<circle opacity="0.8308" fill="#D7D7D7" cx="211.966" cy="18.014" r="4.213"/>
				<circle opacity="0.8259" fill="#D7D7D7" cx="211.968" cy="18.017" r="4.213"/>
				<circle opacity="0.8209" fill="#D8D8D8" cx="211.97" cy="18.019" r="4.213"/>
				<circle opacity="0.8159" fill="#D8D8D8" cx="211.972" cy="18.021" r="4.213"/>
				<circle opacity="0.8109" fill="#D8D8D8" cx="211.974" cy="18.024" r="4.213"/>
				<circle opacity="0.806" fill="#D8D8D8" cx="211.976" cy="18.026" r="4.213"/>
				<circle opacity="0.801" fill="#D9D9D9" cx="211.978" cy="18.029" r="4.213"/>
				<circle opacity="0.796" fill="#D9D9D9" cx="211.979" cy="18.031" r="4.213"/>
				<circle opacity="0.791" fill="#D9D9D9" cx="211.982" cy="18.033" r="4.213"/>
				<circle opacity="0.7861" fill="#D9D9D9" cx="211.983" cy="18.036" r="4.213"/>
				<circle opacity="0.7811" fill="#DADADA" cx="211.985" cy="18.038" r="4.213"/>
				<circle opacity="0.7761" fill="#DADADA" cx="211.987" cy="18.041" r="4.213"/>
				<circle opacity="0.7711" fill="#DADADA" cx="211.99" cy="18.043" r="4.213"/>
				<circle opacity="0.7662" fill="#DADADA" cx="211.992" cy="18.046" r="4.213"/>
				<circle opacity="0.7612" fill="#DADADA" cx="211.993" cy="18.048" r="4.213"/>
				<circle opacity="0.7562" fill="#DBDBDB" cx="211.995" cy="18.05" r="4.213"/>
				<circle opacity="0.7512" fill="#DBDBDB" cx="211.998" cy="18.053" r="4.213"/>
				<circle opacity="0.7463" fill="#DBDBDB" cx="212" cy="18.055" r="4.212"/>
				<circle opacity="0.7413" fill="#DBDBDB" cx="212.002" cy="18.058" r="4.213"/>
				<circle opacity="0.7363" fill="#DCDCDC" cx="212.004" cy="18.06" r="4.213"/>
				<circle opacity="0.7313" fill="#DCDCDC" cx="212.006" cy="18.062" r="4.213"/>
				<circle opacity="0.7264" fill="#DCDCDC" cx="212.008" cy="18.065" r="4.213"/>
				<circle opacity="0.7214" fill="#DCDCDC" cx="212.01" cy="18.067" r="4.213"/>
				<circle opacity="0.7164" fill="#DDDDDD" cx="212.012" cy="18.07" r="4.212"/>
				<circle opacity="0.7114" fill="#DDDDDD" cx="212.014" cy="18.072" r="4.213"/>
				<circle opacity="0.7065" fill="#DDDDDD" cx="212.016" cy="18.074" r="4.213"/>
				<circle opacity="0.7015" fill="#DDDDDD" cx="212.018" cy="18.076" r="4.213"/>
				<circle opacity="0.6965" fill="#DEDEDE" cx="212.02" cy="18.08" r="4.213"/>
				<circle opacity="0.6915" fill="#DEDEDE" cx="212.022" cy="18.082" r="4.213"/>
				<circle opacity="0.6866" fill="#DEDEDE" cx="212.023" cy="18.084" r="4.213"/>
				<circle opacity="0.6816" fill="#DEDEDE" cx="212.025" cy="18.087" r="4.213"/>
				<circle opacity="0.6766" fill="#DFDFDF" cx="212.028" cy="18.089" r="4.213"/>
				<circle opacity="0.6716" fill="#DFDFDF" cx="212.03" cy="18.092" r="4.213"/>
				<circle opacity="0.6667" fill="#DFDFDF" cx="212.032" cy="18.094" r="4.213"/>
				<circle opacity="0.6617" fill="#DFDFDF" cx="212.033" cy="18.096" r="4.212"/>
				<circle opacity="0.6567" fill="#DFDFDF" cx="212.036" cy="18.099" r="4.213"/>
				<circle opacity="0.6517" fill="#E0E0E0" cx="212.038" cy="18.102" r="4.213"/>
				<circle opacity="0.6468" fill="#E0E0E0" cx="212.04" cy="18.104" r="4.213"/>
				<circle opacity="0.6418" fill="#E0E0E0" cx="212.042" cy="18.106" r="4.212"/>
				<circle opacity="0.6368" fill="#E0E0E0" cx="212.044" cy="18.109" r="4.213"/>
				<circle opacity="0.6318" fill="#E1E1E1" cx="212.046" cy="18.111" r="4.213"/>
				<circle opacity="0.6269" fill="#E1E1E1" cx="212.048" cy="18.113" r="4.213"/>
				<circle opacity="0.6219" fill="#E1E1E1" cx="212.05" cy="18.115" r="4.213"/>
				<circle opacity="0.6169" fill="#E1E1E1" cx="212.052" cy="18.118" r="4.213"/>
				<circle opacity="0.6119" fill="#E2E2E2" cx="212.055" cy="18.121" r="4.213"/>
				<circle opacity="0.607" fill="#E2E2E2" cx="212.056" cy="18.123" r="4.213"/>
				<circle opacity="0.602" fill="#E2E2E2" cx="212.058" cy="18.125" r="4.213"/>
				<circle opacity="0.597" fill="#E2E2E2" cx="212.06" cy="18.128" r="4.213"/>
				<circle opacity="0.592" fill="#E3E3E3" cx="212.062" cy="18.131" r="4.213"/>
				<circle opacity="0.5871" fill="#E3E3E3" cx="212.064" cy="18.133" r="4.213"/>
				<circle opacity="0.5821" fill="#E3E3E3" cx="212.065" cy="18.135" r="4.213"/>
				<circle opacity="0.5771" fill="#E3E3E3" cx="212.068" cy="18.138" r="4.213"/>
				<circle opacity="0.5721" fill="#E4E4E4" cx="212.07" cy="18.141" r="4.213"/>
				<circle opacity="0.5672" fill="#E4E4E4" cx="212.072" cy="18.143" r="4.213"/>
				<circle opacity="0.5622" fill="#E4E4E4" cx="212.074" cy="18.145" r="4.213"/>
				<circle opacity="0.5572" fill="#E4E4E4" cx="212.076" cy="18.147" r="4.213"/>
				<circle opacity="0.5522" fill="#E4E4E4" cx="212.078" cy="18.15" r="4.213"/>
				<circle opacity="0.5473" fill="#E5E5E5" cx="212.08" cy="18.152" r="4.213"/>
				<circle opacity="0.5423" fill="#E5E5E5" cx="212.082" cy="18.154" r="4.213"/>
				<circle opacity="0.5373" fill="#E5E5E5" cx="212.084" cy="18.157" r="4.213"/>
				<circle opacity="0.5323" fill="#E5E5E5" cx="212.086" cy="18.16" r="4.213"/>
				<circle opacity="0.5274" fill="#E6E6E6" cx="212.088" cy="18.162" r="4.213"/>
				<circle opacity="0.5224" fill="#E6E6E6" cx="212.09" cy="18.164" r="4.213"/>
				<circle opacity="0.5174" fill="#E6E6E6" cx="212.092" cy="18.167" r="4.213"/>
				<circle opacity="0.5124" fill="#E6E6E6" cx="212.095" cy="18.17" r="4.213"/>
				<circle opacity="0.5075" fill="#E7E7E7" cx="212.096" cy="18.172" r="4.213"/>
				<circle opacity="0.5025" fill="#E7E7E7" cx="212.098" cy="18.174" r="4.213"/>
				<circle opacity="0.4975" fill="#E7E7E7" cx="212.101" cy="18.176" r="4.213"/>
				<circle opacity="0.4925" fill="#E7E7E7" cx="212.103" cy="18.179" r="4.213"/>
				<circle opacity="0.4876" fill="#E8E8E8" cx="212.104" cy="18.182" r="4.213"/>
				<circle opacity="0.4826" fill="#E8E8E8" cx="212.106" cy="18.184" r="4.213"/>
				<circle opacity="0.4776" fill="#E8E8E8" cx="212.108" cy="18.187" r="4.213"/>
				<circle opacity="0.4726" fill="#E8E8E8" cx="212.11" cy="18.188" r="4.213"/>
				<circle opacity="0.4677" fill="#E9E9E9" cx="212.112" cy="18.191" r="4.213"/>
				<circle opacity="0.4627" fill="#E9E9E9" cx="212.114" cy="18.193" r="4.213"/>
				<circle opacity="0.4577" fill="#E9E9E9" cx="212.116" cy="18.196" r="4.212"/>
				<circle opacity="0.4527" fill="#E9E9E9" cx="212.118" cy="18.198" r="4.213"/>
				<circle opacity="0.4478" fill="#EAEAEA" cx="212.12" cy="18.201" r="4.213"/>
				<circle opacity="0.4428" fill="#EAEAEA" cx="212.122" cy="18.203" r="4.213"/>
				<circle opacity="0.4378" fill="#EAEAEA" cx="212.124" cy="18.206" r="4.212"/>
				<circle opacity="0.4328" fill="#EAEAEA" cx="212.126" cy="18.208" r="4.213"/>
				<circle opacity="0.4279" fill="#EAEAEA" cx="212.128" cy="18.21" r="4.213"/>
				<circle opacity="0.4229" fill="#EBEBEB" cx="212.13" cy="18.213" r="4.213"/>
				<circle opacity="0.4179" fill="#EBEBEB" cx="212.133" cy="18.215" r="4.213"/>
				<circle opacity="0.4129" fill="#EBEBEB" cx="212.134" cy="18.218" r="4.213"/>
				<circle opacity="0.408" fill="#EBEBEB" cx="212.137" cy="18.22" r="4.213"/>
				<circle opacity="0.403" fill="#ECECEC" cx="212.138" cy="18.223" r="4.213"/>
				<circle opacity="0.398" fill="#ECECEC" cx="212.141" cy="18.225" r="4.213"/>
				<circle opacity="0.393" fill="#ECECEC" cx="212.143" cy="18.228" r="4.213"/>
				<circle opacity="0.3881" fill="#ECECEC" cx="212.145" cy="18.229" r="4.213"/>
				<circle opacity="0.3831" fill="#EDEDED" cx="212.146" cy="18.232" r="4.213"/>
				<circle opacity="0.3781" fill="#EDEDED" cx="212.148" cy="18.234" r="4.213"/>
				<circle opacity="0.3731" fill="#EDEDED" cx="212.15" cy="18.237" r="4.213"/>
				<circle opacity="0.3682" fill="#EDEDED" cx="212.152" cy="18.24" r="4.213"/>
				<circle opacity="0.3632" fill="#EEEEEE" cx="212.154" cy="18.242" r="4.213"/>
				<circle opacity="0.3582" fill="#EEEEEE" cx="212.156" cy="18.244" r="4.213"/>
				<circle opacity="0.3532" fill="#EEEEEE" cx="212.158" cy="18.247" r="4.212"/>
				<circle opacity="0.3483" fill="#EEEEEE" cx="212.16" cy="18.249" r="4.213"/>
				<circle opacity="0.3433" fill="#EFEFEF" cx="212.162" cy="18.252" r="4.213"/>
				<circle opacity="0.3383" fill="#EFEFEF" cx="212.165" cy="18.254" r="4.213"/>
				<circle opacity="0.3333" fill="#EFEFEF" cx="212.166" cy="18.257" r="4.213"/>
				<circle opacity="0.3284" fill="#EFEFEF" cx="212.169" cy="18.259" r="4.213"/>
				<circle opacity="0.3234" fill="#EFEFEF" cx="212.17" cy="18.262" r="4.213"/>
				<circle opacity="0.3184" fill="#F0F0F0" cx="212.173" cy="18.264" r="4.213"/>
				<circle opacity="0.3134" fill="#F0F0F0" cx="212.175" cy="18.266" r="4.213"/>
				<circle opacity="0.3085" fill="#F0F0F0" cx="212.177" cy="18.269" r="4.213"/>
				<circle opacity="0.3035" fill="#F0F0F0" cx="212.179" cy="18.271" r="4.213"/>
				<circle opacity="0.2985" fill="#F1F1F1" cx="212.181" cy="18.273" r="4.213"/>
				<circle opacity="0.2935" fill="#F1F1F1" cx="212.183" cy="18.276" r="4.213"/>
				<circle opacity="0.2886" fill="#F1F1F1" cx="212.185" cy="18.278" r="4.213"/>
				<circle opacity="0.2836" fill="#F1F1F1" cx="212.187" cy="18.281" r="4.213"/>
				<circle opacity="0.2786" fill="#F2F2F2" cx="212.188" cy="18.283" r="4.213"/>
				<circle opacity="0.2736" fill="#F2F2F2" cx="212.19" cy="18.286" r="4.213"/>
				<circle opacity="0.2687" fill="#F2F2F2" cx="212.192" cy="18.288" r="4.213"/>
				<circle opacity="0.2637" fill="#F2F2F2" cx="212.194" cy="18.291" r="4.213"/>
				<circle opacity="0.2587" fill="#F3F3F3" cx="212.196" cy="18.293" r="4.213"/>
				<circle opacity="0.2537" fill="#F3F3F3" cx="212.198" cy="18.295" r="4.213"/>
				<circle opacity="0.2488" fill="#F3F3F3" cx="212.2" cy="18.298" r="4.213"/>
				<circle opacity="0.2438" fill="#F3F3F3" cx="212.202" cy="18.3" r="4.213"/>
				<circle opacity="0.2388" fill="#F4F4F4" cx="212.204" cy="18.303" r="4.213"/>
				<circle opacity="0.2338" fill="#F4F4F4" cx="212.206" cy="18.305" r="4.213"/>
				<circle opacity="0.2289" fill="#F4F4F4" cx="212.209" cy="18.307" r="4.213"/>
				<circle opacity="0.2239" fill="#F4F4F4" cx="212.21" cy="18.31" r="4.213"/>
				<circle opacity="0.2189" fill="#F4F4F4" cx="212.213" cy="18.312" r="4.213"/>
				<circle opacity="0.2139" fill="#F5F5F5" cx="212.214" cy="18.315" r="4.213"/>
				<circle opacity="0.209" fill="#F5F5F5" cx="212.217" cy="18.317" r="4.213"/>
				<circle opacity="0.204" fill="#F5F5F5" cx="212.219" cy="18.319" r="4.213"/>
				<circle opacity="0.199" fill="#F5F5F5" cx="212.221" cy="18.322" r="4.213"/>
				<circle opacity="0.194" fill="#F6F6F6" cx="212.223" cy="18.324" r="4.213"/>
				<circle opacity="0.1891" fill="#F6F6F6" cx="212.225" cy="18.327" r="4.213"/>
				<circle opacity="0.1841" fill="#F6F6F6" cx="212.227" cy="18.329" r="4.213"/>
				<circle opacity="0.1791" fill="#F6F6F6" cx="212.229" cy="18.331" r="4.213"/>
				<circle opacity="0.1741" fill="#F7F7F7" cx="212.23" cy="18.334" r="4.213"/>
				<circle opacity="0.1692" fill="#F7F7F7" cx="212.232" cy="18.337" r="4.213"/>
				<circle opacity="0.1642" fill="#F7F7F7" cx="212.234" cy="18.339" r="4.213"/>
				<circle opacity="0.1592" fill="#F7F7F7" cx="212.236" cy="18.342" r="4.213"/>
				<circle opacity="0.1542" fill="#F8F8F8" cx="212.238" cy="18.344" r="4.213"/>
				<circle opacity="0.1493" fill="#F8F8F8" cx="212.241" cy="18.346" r="4.213"/>
				<circle opacity="0.1443" fill="#F8F8F8" cx="212.242" cy="18.349" r="4.213"/>
				<circle opacity="0.1393" fill="#F8F8F8" cx="212.245" cy="18.351" r="4.213"/>
				<circle opacity="0.1343" fill="#F9F9F9" cx="212.246" cy="18.354" r="4.213"/>
				<circle opacity="0.1294" fill="#F9F9F9" cx="212.249" cy="18.356" r="4.213"/>
				<circle opacity="0.1244" fill="#F9F9F9" cx="212.251" cy="18.358" r="4.213"/>
				<circle opacity="0.1194" fill="#F9F9F9" cx="212.253" cy="18.36" r="4.213"/>
				<circle opacity="0.1144" fill="#FAFAFA" cx="212.255" cy="18.363" r="4.213"/>
				<circle opacity="0.1095" fill="#FAFAFA" cx="212.257" cy="18.365" r="4.213"/>
				<circle opacity="0.1045" fill="#FAFAFA" cx="212.259" cy="18.368" r="4.213"/>
				<circle opacity="0.0995" fill="#FAFAFA" cx="212.261" cy="18.37" r="4.213"/>
				<circle opacity="0.0945" fill="#FAFAFA" cx="212.263" cy="18.373" r="4.213"/>
				<circle opacity="0.0896" fill="#FBFBFB" cx="212.265" cy="18.375" r="4.213"/>
				<circle opacity="0.0846" fill="#FBFBFB" cx="212.267" cy="18.378" r="4.213"/>
				<circle opacity="0.0796" fill="#FBFBFB" cx="212.269" cy="18.38" r="4.213"/>
				<circle opacity="0.0746" fill="#FBFBFB" cx="212.271" cy="18.383" r="4.213"/>
				<circle opacity="0.0697" fill="#FCFCFC" cx="212.272" cy="18.385" r="4.213"/>
				<circle opacity="0.0647" fill="#FCFCFC" cx="212.274" cy="18.388" r="4.213"/>
				<circle opacity="0.0597" fill="#FCFCFC" cx="212.276" cy="18.39" r="4.213"/>
				<circle opacity="0.0547" fill="#FCFCFC" cx="212.278" cy="18.392" r="4.213"/>
				<circle opacity="0.0498" fill="#FDFDFD" cx="212.28" cy="18.395" r="4.213"/>
				<circle opacity="0.0448" fill="#FDFDFD" cx="212.282" cy="18.397" r="4.213"/>
				<circle opacity="0.0398" fill="#FDFDFD" cx="212.285" cy="18.399" r="4.213"/>
				<circle opacity="0.0348" fill="#FDFDFD" cx="212.286" cy="18.402" r="4.213"/>
				<circle opacity="0.0299" fill="#FEFEFE" cx="212.289" cy="18.404" r="4.213"/>
				<circle opacity="0.0249" fill="#FEFEFE" cx="212.29" cy="18.407" r="4.213"/>
				<circle opacity="0.0199" fill="#FEFEFE" cx="212.293" cy="18.409" r="4.213"/>
				<circle opacity="0.0149" fill="#FEFEFE" cx="212.295" cy="18.411" r="4.213"/>
				<circle opacity="0.01" fill="#FFFFFF" cx="212.296" cy="18.414" r="4.213"/>
				<circle opacity="0.005" fill="#FFFFFF" cx="212.299" cy="18.416" r="4.213"/>
				<circle opacity="0" fill="#FFFFFF" cx="212.302" cy="18.419" r="4.213"/>
			</g>
		</g>
	</g>
	<g>
		<path fill="#1D1D1B" d="M234.939,13.688c0-0.139-0.097-0.214-0.265-0.214h-0.223v0.696h0.165V13.9l0.195,0.27h0.202l-0.228-0.287
			C234.885,13.857,234.939,13.786,234.939,13.688z M234.646,13.784h-0.028v-0.182h0.031c0.081,0,0.123,0.029,0.123,0.089
			C234.771,13.753,234.729,13.784,234.646,13.784z"/>
		<path fill="#1D1D1B" d="M234.709,13.215c-0.339,0-0.605,0.269-0.605,0.606c0,0.337,0.271,0.607,0.605,0.607
			c0.329,0,0.598-0.273,0.598-0.607C235.307,13.489,235.038,13.215,234.709,13.215z M234.707,14.319
			c-0.268,0-0.484-0.221-0.484-0.497c0-0.278,0.215-0.499,0.484-0.499c0.264,0,0.479,0.226,0.479,0.499
			C235.187,14.096,234.971,14.319,234.707,14.319z"/>
	</g>
</g>
<g>
	<path id="path5332" fill="#FFFFFF" d="M140.496,2.682h34.699v34.83h-34.699V2.682z"/>
	<path id="path5336" fill="#1790CD" d="M138.267,36.79h-0.305c-0.038-0.123-0.046-0.353-0.046-0.407
		c0-0.111-0.018-0.228-0.226-0.228h-0.449v0.635h-0.27v-1.546h0.719c0.245,0,0.519,0.086,0.519,0.431
		c0,0.194-0.081,0.289-0.167,0.349c0.071,0.04,0.131,0.104,0.139,0.28l0.013,0.269c0.002,0.077,0.011,0.093,0.073,0.129V36.79z
		 M137.935,35.694c0-0.193-0.135-0.21-0.23-0.21h-0.463v0.431h0.428C137.811,35.915,137.935,35.882,137.935,35.694 M139.205,36.033
		c0-0.915-0.743-1.648-1.659-1.648c-0.915,0-1.657,0.733-1.657,1.648c0,0.916,0.742,1.649,1.657,1.649
		C138.462,37.683,139.205,36.949,139.205,36.033 M138.953,36.033c0,0.777-0.596,1.407-1.407,1.407c-0.81,0-1.405-0.63-1.405-1.407
		c0-0.776,0.594-1.407,1.405-1.407C138.359,34.626,138.953,35.257,138.953,36.033"/>
	
		<radialGradient id="path5348_1_" cx="398.8975" cy="-127.0098" r="17.3505" gradientTransform="matrix(1.5231 1.6324 1.5 -1.3996 -270.8636 -821.0578)" gradientUnits="userSpaceOnUse">
		<stop  offset="0" style="stop-color:#7FD3F3"/>
		<stop  offset="1" style="stop-color:#017CC2"/>
	</radialGradient>
	<path id="path5348" fill="url(#path5348_1_)" d="M175.195,21.649h-1.807c-0.541,0-0.945,0.126-1.224,0.327v-0.327h-2.666
		c-0.423,0-0.932,0.103-1.168,0.327v-0.327h-4.764v0.327c-0.382-0.269-1.02-0.327-1.32-0.327h-3.146v0.327
		c-0.3-0.289-0.961-0.327-1.365-0.327h-3.526l-0.806,0.873l-0.75-0.873h-5.258v5.693h5.159l0.827-0.887l0.783,0.884l3.176,0.003V26
		h0.317c0.42,0,0.917-0.01,1.351-0.197v1.54h2.631v-1.491h0.128c0.16,0,0.173,0.013,0.173,0.165v1.326h7.965
		c0.501,0,1.041-0.13,1.333-0.36v0.36h2.524c0.523,0,1.041-0.076,1.432-0.262v10.431h-34.699v-17.19h1.666l0.375-0.913h0.84
		l0.377,0.913h3.279v-0.695l0.293,0.696h1.698l0.296-0.707v0.706h8.143v-1.49h0.159c0.117,0,0.145,0.013,0.145,0.194v1.296h4.214
		l-0.002-0.354c0.336,0.182,0.863,0.354,1.565,0.354h1.771l0.384-0.913h0.839l0.377,0.913h3.405v-0.865l0.524,0.865h2.734v-5.693
		h-2.705V15.3l-0.388-0.672h-2.78V15.3l-0.341-0.672h-3.755c-0.633,0-1.189,0.084-1.632,0.328v-0.328h-2.588v0.328
		c-0.294-0.249-0.677-0.328-1.104-0.328h-9.468l-0.642,1.469l-0.647-1.469h-2.979V15.3l-0.337-0.672h-2.543l-1.175,2.7V2.682h34.699
		V21.649 M172.715,19.517h-1.39l-1.845-3.061v3.061h-1.983l-0.376-0.914h-2.031l-0.373,0.914h-1.135c-0.48,0-1.079-0.11-1.418-0.454
		c-0.344-0.35-0.519-0.815-0.519-1.558c0-0.606,0.108-1.161,0.524-1.595c0.312-0.325,0.811-0.478,1.484-0.478h0.933v0.876
		l-0.914-0.001c-0.359,0-0.562,0.054-0.753,0.245c-0.172,0.169-0.287,0.495-0.287,0.925c0,0.435,0.087,0.747,0.278,0.957
		c0.144,0.158,0.415,0.208,0.677,0.208h0.438l1.373-3.21h1.454l1.653,3.863v-3.863h1.489l1.716,2.844l-0.002-2.844h1.005V19.517z
		 M160.171,19.517h0.999V15.43h-0.999V19.517z M159.107,15.629c-0.314-0.179-0.68-0.197-1.176-0.197h-2.245v4.085h0.974V18.03h1.048
		c0.354,0,0.569,0.032,0.708,0.18c0.18,0.192,0.16,0.548,0.16,0.791v0.516h0.982v-0.811c0-0.354-0.025-0.542-0.162-0.74
		c-0.082-0.119-0.267-0.266-0.48-0.347c0.257-0.101,0.693-0.436,0.693-1.083C159.609,16.078,159.421,15.81,159.107,15.629
		 M155.01,18.664l-2.282,0.002v-0.809l2.228,0.001v-0.84h-2.228v-0.736h2.282v-0.851h-3.258v4.085h3.258V18.664z M151.024,15.432
		h-1.625l-1.174,2.771l-1.271-2.771h-1.596l0.001,3.865l-1.655-3.865h-1.453l-1.746,4.085h1.063l0.374-0.914h2.03l0.376,0.914h1.984
		v-3.202l1.418,3.202h0.857l1.414-3.198v3.198h1.002V15.432z M166.771,17.752l-0.666-1.622l-0.665,1.622H166.771z M158.327,17.107
		c-0.131,0.079-0.29,0.084-0.478,0.084h-1.189v-0.909h1.203c0.173,0,0.348,0.006,0.464,0.071c0.121,0.068,0.2,0.193,0.2,0.366
		C158.527,16.895,158.452,17.035,158.327,17.107 M142.291,17.752l0.665-1.622l0.665,1.622H142.291 M175.409,25.252
		c0,0.868-0.545,1.286-1.534,1.286h-1.883v-0.876h1.877c0.181,0,0.311-0.025,0.392-0.1c0.065-0.061,0.114-0.152,0.114-0.267
		c0-0.122-0.049-0.213-0.118-0.271c-0.073-0.062-0.172-0.087-0.341-0.091c-0.91-0.025-2.057,0.029-2.057-1.267
		c0-0.586,0.371-1.216,1.398-1.216h1.944v0.878h-1.78c-0.176,0-0.293,0.006-0.389,0.069c-0.104,0.067-0.145,0.165-0.145,0.295
		c0,0.151,0.088,0.259,0.214,0.303c0.099,0.034,0.211,0.043,0.374,0.045L174,24.056c0.542,0.013,0.896,0.103,1.114,0.328
		C175.308,24.587,175.409,24.826,175.409,25.252 M171.303,24.384c-0.22-0.225-0.576-0.315-1.117-0.328l-0.522-0.015
		c-0.163-0.002-0.273-0.011-0.373-0.045c-0.125-0.044-0.214-0.151-0.214-0.303c0-0.13,0.042-0.228,0.144-0.295
		c0.095-0.063,0.214-0.069,0.391-0.069h1.789v-0.878h-1.954c-1.026,0-1.397,0.63-1.397,1.216c0,1.298,1.146,1.241,2.057,1.267
		c0.166,0.004,0.267,0.029,0.34,0.091c0.068,0.059,0.12,0.149,0.12,0.271c0,0.114-0.052,0.206-0.117,0.267
		c-0.081,0.074-0.209,0.1-0.392,0.1h-1.894v0.876h1.9c0.987,0,1.533-0.418,1.533-1.286
		C171.596,24.826,171.496,24.587,171.303,24.384 M167.582,25.688l-2.283-0.001v-0.808h2.229v-0.84l-2.229,0.002v-0.737h2.283v-0.853
		h-3.258v4.087h3.258V25.688z M163.281,22.651c-0.316-0.181-0.681-0.2-1.175-0.2h-2.248v4.087h0.975v-1.486h1.05
		c0.354,0,0.567,0.031,0.708,0.178c0.181,0.192,0.158,0.549,0.158,0.792v0.517h0.984v-0.811c-0.002-0.354-0.025-0.542-0.163-0.739
		c-0.081-0.121-0.266-0.268-0.479-0.349c0.254-0.101,0.693-0.435,0.693-1.085C163.785,23.1,163.595,22.832,163.281,22.651
		 M157.759,22.451h-3.118l-1.244,1.342l-1.195-1.342h-3.928v4.087h3.866l1.247-1.348l1.2,1.348h1.899V25.17h1.213
		c0.852,0,1.697-0.236,1.697-1.367C159.396,22.673,158.528,22.451,157.759,22.451 M162.503,24.129
		c-0.133,0.077-0.292,0.083-0.479,0.083l-1.19,0.002v-0.91h1.203c0.174,0,0.349,0.007,0.467,0.069
		c0.121,0.07,0.199,0.194,0.199,0.367C162.702,23.917,162.625,24.058,162.503,24.129 M157.749,24.331h-1.263v-1.027h1.272
		c0.351,0,0.591,0.146,0.591,0.499C158.35,24.153,158.12,24.331,157.749,24.331 M154.017,24.504l1.495-1.608v3.269L154.017,24.504z
		 M151.646,25.687h-2.396v-0.808h2.136v-0.84l-2.136,0.002v-0.737h2.438l1.07,1.188L151.646,25.687"/>
</g>
<g id="layer1" transform="translate(-334.1039,-12.77466)">
	<g id="g63359" transform="matrix(3.774022,0,0,3.774022,-926.8121,-1696.948)">
		<path id="path58344" fill="#E3B837" d="M361.269,461.612c0.777,0.704,1.806,1.132,2.935,1.132c2.415,0,4.372-1.957,4.372-4.372
			c0-2.415-1.957-4.372-4.372-4.372c-1.129,0-2.158,0.428-2.935,1.132c-0.882,0.799-1.437,1.955-1.437,3.24
			C359.831,459.657,360.386,460.811,361.269,461.612"/>
		<path id="path58346" fill="#E3B837" d="M368.115,460.8h0.016c0.005,0,0.011,0,0.016-0.003c0.005-0.003,0.008-0.008,0.008-0.014
			s-0.003-0.011-0.008-0.013c-0.003-0.003-0.011-0.003-0.016-0.003h-0.016V460.8z M368.115,460.87h-0.03v-0.124h0.054
			c0.011,0,0.022,0,0.03,0.005c0.011,0.008,0.016,0.019,0.016,0.032c0,0.014-0.008,0.027-0.021,0.033l0.024,0.054h-0.033
			l-0.019-0.049h-0.022V460.87z M368.134,460.916c0.06,0,0.108-0.049,0.108-0.108c0-0.06-0.049-0.108-0.108-0.108
			c-0.06,0-0.108,0.049-0.108,0.108C368.026,460.867,368.074,460.916,368.134,460.916 M367.993,460.808
			c0-0.078,0.062-0.141,0.141-0.141c0.079,0,0.141,0.062,0.141,0.141c0,0.079-0.062,0.141-0.141,0.141
			C368.055,460.948,367.993,460.886,367.993,460.808"/>
		<path id="path58348" fill="#E3B837" d="M361.269,461.612c-0.882-0.801-1.437-1.955-1.437-3.24c0-1.286,0.555-2.442,1.437-3.24"/>
		<path id="path58350" fill="none" stroke="#E3B837" stroke-width="0.9393" d="M361.269,461.612
			c-0.882-0.801-1.437-1.955-1.437-3.24c0-1.286,0.555-2.442,1.437-3.24"/>
		<path id="path58352" fill="#BE002E" d="M362.682,457.909c-0.016-0.157-0.043-0.311-0.076-0.463h-2.677
			c0.035-0.157,0.079-0.311,0.127-0.463h2.423c-0.052-0.16-0.114-0.314-0.184-0.463h-2.052c0.076-0.159,0.16-0.314,0.252-0.463
			h1.548c-0.1-0.163-0.214-0.317-0.333-0.463h-0.882c0.135-0.165,0.282-0.32,0.441-0.463c-0.777-0.704-1.806-1.132-2.934-1.132
			c-2.415,0-4.372,1.957-4.372,4.372c0,2.415,1.957,4.372,4.372,4.372c1.129,0,2.158-0.428,2.934-1.132
			c0.157-0.144,0.306-0.298,0.441-0.463h-0.882c-0.122-0.146-0.23-0.301-0.333-0.463h1.548c0.092-0.149,0.176-0.303,0.252-0.463
			h-2.052c-0.07-0.152-0.133-0.303-0.187-0.463h2.423c0.051-0.152,0.095-0.306,0.127-0.463c0.033-0.152,0.06-0.306,0.076-0.463
			c0.016-0.152,0.024-0.306,0.024-0.463C362.706,458.214,362.698,458.06,362.682,457.909"/>
		<path id="path58354" fill="#FFFFFF" d="M368.115,459.376h0.016c0.005,0,0.011,0.003,0.016,0c0.005-0.005,0.008-0.011,0.008-0.016
			s-0.003-0.011-0.008-0.011c-0.003-0.005-0.011-0.003-0.016-0.003h-0.016V459.376z M368.115,459.446h-0.03v-0.122h0.054
			c0.011,0,0.022,0,0.03,0.005c0.011,0.005,0.016,0.019,0.016,0.03c0,0.016-0.008,0.027-0.021,0.033l0.024,0.054h-0.033
			l-0.019-0.049h-0.022V459.446z M368.134,459.492c0.06,0,0.108-0.049,0.108-0.106c0-0.06-0.049-0.108-0.108-0.108
			c-0.06,0-0.108,0.049-0.108,0.108C368.026,459.444,368.074,459.492,368.134,459.492 M367.993,459.387
			c0-0.078,0.062-0.144,0.141-0.144c0.079,0,0.141,0.065,0.141,0.144c0,0.076-0.062,0.141-0.141,0.141
			C368.055,459.527,367.993,459.462,367.993,459.387"/>
		<path id="path58356" d="M359.782,459.633c-0.146,0.041-0.249,0.06-0.357,0.06c-0.222,0-0.36-0.141-0.36-0.395
			c0-0.051,0.005-0.106,0.014-0.163l0.03-0.176l0.022-0.144l0.206-1.232h0.458l-0.054,0.268h0.284l-0.068,0.455h-0.287l-0.122,0.736
			c-0.005,0.033-0.008,0.06-0.008,0.076c0,0.092,0.049,0.133,0.162,0.133c0.054,0,0.095-0.005,0.143-0.016L359.782,459.633z"/>
		<path id="path58358" d="M360.965,458.545c0.003-0.038,0.003-0.07,0.003-0.092c0-0.146-0.081-0.233-0.225-0.233
			c-0.149,0-0.257,0.116-0.3,0.322L360.965,458.545z M361.247,459.617c-0.162,0.049-0.319,0.073-0.484,0.073
			c-0.509,0-0.807-0.276-0.807-0.807c0-0.62,0.349-1.075,0.828-1.075c0.39,0,0.639,0.254,0.639,0.655
			c0,0.133-0.016,0.263-0.057,0.444h-0.945c-0.003,0.03-0.003,0.041-0.003,0.057c0,0.208,0.141,0.317,0.414,0.317
			c0.171,0,0.322-0.035,0.493-0.114L361.247,459.617z"/>
		<path id="path58360" d="M356.16,459.657h-0.477l0.273-1.706l-0.606,1.706h-0.325l-0.041-1.697l-0.284,1.697h-0.46l0.371-2.22
			h0.682l0.019,1.375l0.46-1.375h0.75L356.16,459.657z"/>
		<path id="path58362" d="M357.673,459.657h-0.409l0.008-0.187c-0.103,0.138-0.244,0.217-0.498,0.217c-0.23,0-0.422-0.2-0.422-0.493
			c0-0.087,0.016-0.163,0.035-0.235c0.076-0.276,0.357-0.452,0.788-0.46c0.054,0,0.138,0,0.208,0.008
			c0.016-0.06,0.019-0.084,0.019-0.116c0-0.119-0.097-0.157-0.319-0.157c-0.135,0-0.287,0.022-0.393,0.054l-0.068,0.019
			l-0.027,0.005l0.065-0.403c0.222-0.068,0.379-0.098,0.552-0.098c0.409,0,0.625,0.184,0.625,0.531c0,0.089,0.008,0.157-0.024,0.357
			l-0.097,0.639l-0.019,0.116l-0.011,0.089l-0.008,0.062L357.673,459.657z M357.3,458.853c-0.052-0.005-0.06-0.008-0.095-0.008
			c-0.268,0-0.403,0.103-0.403,0.273c0,0.114,0.065,0.184,0.171,0.184C357.2,459.303,357.292,459.119,357.3,458.853"/>
		<path id="path58364" d="M363.529,457.868c0.132,0,0.257,0.035,0.425,0.122l0.079-0.482c-0.043-0.017-0.054-0.022-0.116-0.043
			l-0.195-0.049c-0.06-0.016-0.13-0.024-0.211-0.024c-0.236,0-0.374,0.003-0.517,0.092c-0.076,0.046-0.171,0.114-0.282,0.235
			l-0.057-0.016l-0.485,0.344l0.024-0.195h-0.504l-0.29,1.806h0.476l0.173-0.972c0,0,0.068-0.132,0.097-0.173
			c0.087-0.119,0.165-0.119,0.265-0.116c0.011,0,0.027,0,0.033,0c-0.013,0.106-0.022,0.219-0.022,0.344
			c0,0.59,0.336,0.956,0.847,0.956c0.13,0,0.243-0.016,0.417-0.062l0.084-0.506c-0.157,0.076-0.284,0.114-0.403,0.114
			c-0.276,0-0.441-0.203-0.441-0.541C362.928,458.212,363.174,457.868,363.529,457.868"/>
		<path id="path58366" d="M366.962,459.232c-0.16,0-0.244-0.119-0.244-0.357c0-0.355,0.154-0.607,0.368-0.607
			c0.165,0,0.252,0.124,0.252,0.355C367.338,458.981,367.184,459.232,366.962,459.232 M367.541,457.438l-0.106,0.633
			c-0.114-0.171-0.249-0.252-0.433-0.252c-0.249,0-0.479,0.141-0.623,0.409v-0.003l-0.3-0.179l0.022-0.195H365.6l-0.29,1.806h0.474
			l0.157-0.972c0,0,0.122-0.135,0.152-0.176c0.07-0.092,0.149-0.111,0.211-0.114c-0.054,0.152-0.086,0.33-0.086,0.536
			c0,0.449,0.235,0.747,0.582,0.747c0.173,0,0.308-0.06,0.439-0.2l-0.025,0.179h0.449l0.36-2.22H367.541z"/>
		<path id="path58368" d="M365.15,459.657h-0.409l0.008-0.187c-0.103,0.138-0.243,0.217-0.498,0.217
			c-0.227,0-0.439-0.198-0.436-0.495c0.003-0.428,0.325-0.693,0.836-0.693c0.054,0,0.138,0,0.209,0.008
			c0.016-0.06,0.019-0.084,0.019-0.116c0-0.119-0.097-0.157-0.319-0.157c-0.135,0-0.287,0.022-0.393,0.054l-0.065,0.019l-0.03,0.005
			l0.068-0.403c0.222-0.068,0.376-0.098,0.55-0.098c0.409,0,0.623,0.184,0.623,0.531c0,0.089,0.011,0.157-0.022,0.357l-0.097,0.639
			l-0.016,0.116l-0.013,0.089l-0.008,0.062L365.15,459.657z M364.777,458.853c-0.049-0.005-0.06-0.008-0.095-0.008
			c-0.268,0-0.403,0.103-0.403,0.273c0,0.114,0.065,0.184,0.171,0.184C364.677,459.303,364.769,459.119,364.777,458.853"/>
		<path id="path58370" d="M358.664,458.239c0.092,0,0.219,0.008,0.357,0.027l0.065-0.417c-0.138-0.019-0.314-0.035-0.422-0.035
			c-0.531,0-0.707,0.282-0.707,0.614c0,0.214,0.106,0.376,0.355,0.496c0.192,0.089,0.225,0.106,0.225,0.187
			c0,0.114-0.097,0.176-0.284,0.176c-0.141,0-0.273-0.022-0.425-0.07l-0.054,0.414l0.011,0.003l0.087,0.019
			c0.027,0.005,0.07,0.011,0.124,0.016c0.111,0.011,0.208,0.016,0.268,0.016c0.528,0,0.744-0.203,0.744-0.601
			c0-0.246-0.116-0.393-0.355-0.501c-0.2-0.092-0.222-0.106-0.222-0.19C358.434,458.309,358.518,458.239,358.664,458.239"/>
		<path id="path58372" fill="#FFFFFF" d="M364.16,457.367l-0.076,0.482c-0.171-0.084-0.292-0.119-0.425-0.119
			c-0.355,0-0.604,0.341-0.604,0.831c0,0.336,0.168,0.539,0.444,0.539c0.116,0,0.246-0.035,0.403-0.114l-0.084,0.506
			c-0.176,0.049-0.287,0.065-0.419,0.065c-0.512,0-0.829-0.368-0.829-0.958c0-0.793,0.439-1.346,1.067-1.346
			c0.081,0,0.154,0.008,0.214,0.022l0.195,0.049C364.106,457.346,364.119,457.351,364.16,457.367"/>
		<path id="path58374" fill="#FFFFFF" d="M362.636,457.697c-0.013-0.003-0.03-0.003-0.046-0.003c-0.157,0-0.243,0.079-0.39,0.292
			l0.041-0.274h-0.428l-0.29,1.803h0.474c0.171-1.102,0.217-1.294,0.444-1.294c0.013,0,0.013,0,0.033,0.003
			c0.043-0.217,0.103-0.376,0.181-0.522L362.636,457.697z"/>
		<path id="path58376" fill="#FFFFFF" d="M359.902,459.495c-0.13,0.041-0.23,0.057-0.338,0.057c-0.244,0-0.376-0.138-0.376-0.395
			c0-0.052,0.005-0.106,0.013-0.163l0.03-0.176l0.022-0.141l0.206-1.232h0.471l-0.054,0.268h0.244l-0.065,0.439h-0.244l-0.124,0.753
			c-0.005,0.032-0.008,0.057-0.008,0.073c0,0.095,0.049,0.135,0.16,0.135c0.054,0,0.098-0.005,0.13-0.019L359.902,459.495z"/>
		<path id="path58378" fill="#FFFFFF" d="M358.08,458.282c0,0.227,0.111,0.384,0.36,0.503c0.192,0.09,0.222,0.116,0.222,0.198
			c0,0.114-0.084,0.165-0.271,0.165c-0.143,0-0.273-0.021-0.425-0.073l-0.065,0.417l0.019,0.005l0.089,0.016
			c0.027,0.005,0.068,0.011,0.122,0.016c0.114,0.011,0.2,0.016,0.263,0.016c0.501,0,0.731-0.192,0.731-0.604
			c0-0.246-0.097-0.393-0.333-0.501c-0.2-0.092-0.222-0.111-0.222-0.195c0-0.097,0.079-0.149,0.23-0.149
			c0.095,0,0.222,0.011,0.341,0.027l0.068-0.417c-0.122-0.019-0.309-0.035-0.417-0.035
			C358.261,457.673,358.077,457.952,358.08,458.282"/>
		<path id="path58380" fill="#FFFFFF" d="M367.083,459.092c0.222,0,0.376-0.249,0.376-0.607c0-0.23-0.086-0.355-0.251-0.355
			c-0.214,0-0.368,0.252-0.368,0.606C366.84,458.972,366.921,459.092,367.083,459.092 M367.785,459.517h-0.449l0.024-0.176
			c-0.132,0.138-0.265,0.2-0.441,0.2c-0.344,0-0.571-0.298-0.571-0.75c0-0.598,0.352-1.104,0.771-1.104
			c0.184,0,0.325,0.076,0.455,0.246l0.103-0.633h0.468L367.785,459.517z"/>
		<path id="path58382" fill="#FFFFFF" d="M361.087,458.404c0.003-0.038,0.003-0.068,0.003-0.092c0-0.146-0.084-0.23-0.225-0.23
			c-0.151,0-0.257,0.114-0.303,0.322H361.087z M361.352,459.479c-0.162,0.049-0.319,0.073-0.487,0.073
			c-0.531,0-0.807-0.279-0.807-0.809c0-0.617,0.352-1.075,0.831-1.075c0.39,0,0.639,0.254,0.639,0.655
			c0,0.133-0.016,0.263-0.057,0.447h-0.945c-0.003,0.027-0.005,0.041-0.005,0.057c0,0.209,0.141,0.314,0.417,0.314
			c0.171,0,0.322-0.035,0.493-0.114L361.352,459.479z"/>
		<path id="path58384" fill="#FFFFFF" d="M356.279,459.517h-0.474l0.271-1.705l-0.606,1.705h-0.322l-0.041-1.695l-0.287,1.695
			h-0.444l0.371-2.217h0.682l0.019,1.372l0.463-1.372h0.736L356.279,459.517z"/>
		<path id="path58386" fill="#FFFFFF" d="M357.795,459.517H357.4l0.011-0.187c-0.122,0.149-0.282,0.219-0.498,0.219
			c-0.257,0-0.433-0.203-0.433-0.493c0-0.441,0.306-0.696,0.831-0.696c0.054,0,0.125,0.005,0.195,0.013
			c0.014-0.06,0.019-0.087,0.019-0.116c0-0.122-0.084-0.165-0.306-0.165c-0.135,0-0.287,0.019-0.393,0.051l-0.065,0.019
			l-0.043,0.011l0.065-0.406c0.238-0.068,0.393-0.095,0.569-0.095c0.406,0,0.623,0.181,0.623,0.528c0,0.089-0.008,0.157-0.038,0.357
			l-0.1,0.641l-0.016,0.114l-0.011,0.092l-0.008,0.062L357.795,459.517z M357.449,458.713c-0.049-0.005-0.07-0.005-0.106-0.005
			c-0.268,0-0.406,0.092-0.406,0.273c0,0.111,0.068,0.184,0.171,0.184C357.303,459.165,357.441,458.981,357.449,458.713"/>
		<path id="path58388" fill="#FFFFFF" d="M365.272,459.517h-0.395l0.011-0.187c-0.122,0.149-0.282,0.219-0.498,0.219
			c-0.257,0-0.433-0.203-0.433-0.493c0-0.441,0.306-0.696,0.834-0.696c0.054,0,0.122,0.005,0.192,0.013
			c0.016-0.06,0.019-0.087,0.019-0.116c0-0.122-0.084-0.165-0.303-0.165c-0.135,0-0.29,0.019-0.395,0.051l-0.065,0.019l-0.043,0.011
			l0.065-0.406c0.238-0.068,0.393-0.095,0.568-0.095c0.409,0,0.623,0.181,0.623,0.528c0,0.089-0.005,0.157-0.038,0.357l-0.1,0.641
			l-0.016,0.114l-0.011,0.092l-0.008,0.062L365.272,459.517z M364.926,458.713c-0.049-0.005-0.07-0.005-0.106-0.005
			c-0.268,0-0.406,0.092-0.406,0.273c0,0.111,0.068,0.184,0.171,0.184C364.78,459.165,364.918,458.981,364.926,458.713"/>
		<path id="path58390" fill="#FFFFFF" d="M366.545,457.697c-0.013-0.003-0.03-0.003-0.049-0.003c-0.154,0-0.244,0.079-0.39,0.292
			l0.043-0.274h-0.431l-0.29,1.803h0.476c0.168-1.102,0.214-1.294,0.441-1.294c0.013,0,0.013,0,0.032,0.003
			c0.043-0.217,0.1-0.376,0.181-0.522L366.545,457.697z"/>
	</g>
</g>
<g>
	<path fill-rule="evenodd" clip-rule="evenodd" fill="#3B4996" d="M68.949,30.091c-0.709,0-1.418-0.01-2.127,0.006
		c-0.242,0.006-0.323-0.075-0.37-0.31c-0.155-0.782-0.35-1.556-0.509-2.337c-0.041-0.202-0.123-0.247-0.312-0.247
		c-2.07,0-4.141-0.005-6.211-0.019c-0.217-0.001-0.313,0.072-0.386,0.272c-0.28,0.771-0.592,1.53-0.866,2.302
		c-0.089,0.25-0.197,0.345-0.476,0.342c-1.62-0.016-3.241-0.014-4.861-0.001c-0.303,0.002-0.357-0.04-0.225-0.338
		c1.778-4.001,3.544-8.007,5.312-12.012c0.779-1.765,1.577-3.521,2.333-5.296c0.491-1.154,1.355-1.697,2.575-1.709
		c1.361-0.014,2.724,0.002,4.085-0.008c0.222-0.002,0.272,0.083,0.315,0.28c1.023,4.662,2.055,9.323,3.085,13.983
		c0.352,1.59,0.699,3.181,1.06,4.77c0.059,0.255,0.009,0.334-0.264,0.328C70.389,30.079,69.669,30.091,68.949,30.091z
		 M63.463,16.089c-0.047,0.059-0.075,0.081-0.086,0.109c-0.868,2.248-1.732,4.498-2.605,6.743c-0.089,0.229-0.056,0.287,0.194,0.285
		c1.247-0.009,2.494-0.013,3.741,0.003c0.296,0.004,0.298-0.106,0.247-0.336C64.456,20.637,63.964,18.38,63.463,16.089z"/>
	<path fill-rule="evenodd" clip-rule="evenodd" fill="#2D3982" d="M30.408,10.74c-0.325,0.755-0.634,1.475-0.943,2.194
		c-2.406,5.598-4.814,11.195-7.212,16.795c-0.108,0.253-0.229,0.349-0.512,0.346c-1.643-0.016-3.286-0.013-4.929,0
		c-0.25,0.002-0.337-0.077-0.404-0.315c-1.447-5.212-2.913-10.419-4.352-15.634c-0.172-0.625-0.485-1.015-1.077-1.297
		c-1.423-0.679-2.892-1.212-4.414-1.611c-0.147-0.039-0.306-0.032-0.275-0.28c0.03-0.244,0.177-0.214,0.334-0.214
		c2.746,0,5.492,0.001,8.238,0c0.374,0,0.739,0.054,1.093,0.176c0.782,0.269,1.181,0.854,1.343,1.633
		c0.384,1.847,0.768,3.694,1.15,5.542c0.394,1.9,0.786,3.802,1.18,5.708c0.132-0.048,0.129-0.18,0.167-0.275
		c1.629-4.157,3.257-8.315,4.876-12.477c0.087-0.225,0.192-0.301,0.435-0.299c1.654,0.012,3.308,0.006,4.962,0.007
		C30.167,10.74,30.266,10.74,30.408,10.74z"/>
	<path fill-rule="evenodd" clip-rule="evenodd" fill="#2D3982" d="M38.535,25.009c0.564,0.226,1.114,0.447,1.665,0.666
		c1.417,0.562,2.91,0.7,4.405,0.642c0.839-0.033,1.69-0.247,2.324-0.909c0.523-0.548,0.558-1.278,0.073-1.861
		c-0.427-0.513-1.012-0.812-1.59-1.105c-1.06-0.54-2.161-1-3.127-1.711c-0.98-0.721-1.829-1.564-2.138-2.777
		c-0.46-1.806,0.033-3.409,1.241-4.786c1.214-1.382,2.816-2.101,4.576-2.474c2.479-0.525,4.937-0.396,7.354,0.387
		c0.237,0.077,0.329,0.154,0.274,0.441c-0.229,1.191-0.433,2.388-0.613,3.587c-0.046,0.304-0.129,0.27-0.348,0.172
		c-1.639-0.734-3.353-0.99-5.134-0.754c-0.528,0.07-1.028,0.241-1.456,0.576c-0.731,0.574-0.737,1.4-0.021,1.994
		c0.709,0.587,1.539,0.964,2.358,1.357c1.108,0.531,2.187,1.103,3.073,1.98c1.564,1.547,1.747,3.381,1.051,5.352
		c-0.659,1.867-2.087,2.995-3.861,3.718c-1.832,0.747-3.756,0.953-5.719,0.851c-1.599-0.084-3.174-0.312-4.694-0.839
		c-0.447-0.154-0.441-0.154-0.362-0.608C38.091,27.61,38.311,26.315,38.535,25.009z"/>
	<path fill-rule="evenodd" clip-rule="evenodd" fill="#2D3982" d="M31.823,29.931c-0.788,0.001-1.575-0.004-2.363,0.003
		c-0.193,0.002-0.269-0.012-0.227-0.255c0.593-3.419,1.173-6.841,1.754-10.262c0.484-2.845,0.969-5.691,1.446-8.538
		c0.038-0.225,0.103-0.319,0.356-0.317c1.564,0.014,3.128,0.015,4.691,0.001c0.288-0.002,0.301,0.095,0.259,0.334
		c-0.536,3.099-1.064,6.199-1.592,9.299c-0.542,3.178-1.085,6.354-1.618,9.533c-0.037,0.22-0.162,0.201-0.31,0.201
		C33.42,29.93,32.621,29.931,31.823,29.931z"/>
</g>
</svg>
