<?xml version="1.0" encoding="utf-8"?>
<!-- Generator: Adobe Illustrator 16.0.4, SVG Export Plug-In . SVG Version: 6.00 Build 0)  -->
<!DOCTYPE svg PUBLIC "-//W3C//DTD SVG 1.1//EN" "http://www.w3.org/Graphics/SVG/1.1/DTD/svg11.dtd">
<svg version="1.1" id="svg14712" xmlns:svg="http://www.w3.org/2000/svg"
	 xmlns="http://www.w3.org/2000/svg" xmlns:xlink="http://www.w3.org/1999/xlink" x="0px" y="0px" width="118.275px" height="30px"
	 viewBox="448 116.375 118.275 30" enable-background="new 448 116.375 118.275 30" xml:space="preserve">
<path id="path14499" fill="#003087" d="M469.646,118.637c-1.389-1.583-3.9-2.262-7.112-2.262h-9.323
	c-0.657,0-1.216,0.478-1.319,1.126l-3.882,24.62c-0.077,0.485,0.299,0.925,0.791,0.925h5.755l1.446-9.168l-0.045,0.287
	c0.103-0.648,0.657-1.126,1.313-1.126h2.735c5.373,0,9.58-2.184,10.81-8.496c0.036-0.187,0.068-0.369,0.095-0.546
	c-0.155-0.082-0.155-0.082,0,0C471.277,121.663,470.908,120.075,469.646,118.637"/>
<path id="path14519" fill="#002F86" d="M529.113,130.279h-3.098c-0.297,0-0.574,0.147-0.74,0.393l-4.273,6.293l-1.811-6.048
	c-0.113-0.378-0.463-0.638-0.857-0.638h-3.045c-0.367,0-0.627,0.362-0.508,0.709l3.41,10.013l-3.207,4.526
	c-0.252,0.355,0.002,0.847,0.438,0.847h3.094c0.293,0,0.568-0.144,0.736-0.384l10.301-14.869
	C529.799,130.766,529.545,130.279,529.113,130.279 M508.403,136.277c-0.298,1.761-1.695,2.943-3.479,2.943
	c-0.894,0-1.61-0.288-2.07-0.832c-0.456-0.539-0.627-1.309-0.483-2.164c0.277-1.746,1.698-2.966,3.454-2.966
	c0.875,0,1.585,0.29,2.055,0.84C508.352,134.652,508.539,135.426,508.403,136.277 M512.697,130.279h-3.082
	c-0.264,0-0.488,0.191-0.53,0.454l-0.135,0.861l-0.215-0.312c-0.668-0.969-2.156-1.293-3.642-1.293c-3.405,0-6.313,2.58-6.879,6.199
	c-0.294,1.807,0.124,3.531,1.148,4.735c0.94,1.106,2.282,1.566,3.881,1.566c2.745,0,4.268-1.762,4.268-1.762l-0.138,0.855
	c-0.051,0.326,0.2,0.62,0.531,0.62h2.774c0.44,0,0.814-0.319,0.884-0.754l1.667-10.551
	C513.279,130.573,513.027,130.279,512.697,130.279 M494.204,130.353c-0.352,2.311-2.116,2.311-3.823,2.311h-0.971l0.681-4.313
	c0.041-0.261,0.266-0.452,0.529-0.452h0.446c1.162,0,2.259,0,2.825,0.661C494.229,128.955,494.331,129.542,494.204,130.353
	 M493.46,124.325h-6.436c-0.44,0-0.815,0.32-0.884,0.755l-2.602,16.504c-0.052,0.325,0.2,0.619,0.529,0.619h3.074
	c0.44,0,0.814-0.32,0.883-0.754l0.703-4.453c0.068-0.435,0.443-0.755,0.883-0.755h2.036c4.24,0,6.687-2.052,7.326-6.118
	c0.288-1.778,0.011-3.175-0.821-4.153C497.236,124.894,495.614,124.325,493.46,124.325"/>
<path id="path14523" fill="#009CDE" d="M562.236,124.778l-2.641,16.806c-0.053,0.325,0.199,0.62,0.529,0.62h2.656
	c0.439,0,0.814-0.32,0.883-0.755l2.605-16.504c0.051-0.325-0.199-0.62-0.531-0.62h-2.971
	C562.502,124.325,562.277,124.517,562.236,124.778 M554.309,136.277c-0.297,1.761-1.695,2.943-3.479,2.943
	c-0.895,0-1.609-0.288-2.07-0.832c-0.455-0.539-0.627-1.309-0.482-2.164c0.277-1.746,1.697-2.966,3.453-2.966
	c0.877,0,1.586,0.29,2.055,0.84C554.258,134.652,554.443,135.426,554.309,136.277 M558.604,130.279h-3.082
	c-0.264,0-0.488,0.191-0.529,0.454l-0.135,0.861l-0.217-0.312c-0.668-0.969-2.154-1.293-3.641-1.293
	c-3.404,0-6.312,2.58-6.879,6.199c-0.295,1.807,0.123,3.531,1.148,4.735c0.939,1.106,2.281,1.566,3.881,1.566
	c2.744,0,4.266-1.762,4.266-1.762l-0.137,0.855c-0.051,0.326,0.199,0.62,0.529,0.62h2.775c0.441,0,0.814-0.319,0.885-0.754
	l1.666-10.551C559.186,130.573,558.934,130.279,558.604,130.279 M540.109,130.353c-0.352,2.311-2.115,2.311-3.822,2.311h-0.973
	l0.682-4.313c0.041-0.261,0.266-0.452,0.529-0.452h0.447c1.16,0,2.258,0,2.824,0.661
	C540.135,128.955,540.236,129.542,540.109,130.353 M539.367,124.325h-6.438c-0.439,0-0.814,0.32-0.883,0.755l-2.604,16.504
	c-0.051,0.325,0.201,0.619,0.531,0.619h3.303c0.307,0,0.568-0.224,0.617-0.527l0.738-4.68c0.068-0.435,0.443-0.755,0.883-0.755
	h2.037c4.24,0,6.688-2.052,7.326-6.118c0.287-1.778,0.012-3.175-0.82-4.153C543.143,124.894,541.52,124.325,539.367,124.325"/>
<path id="path14527" fill="#003087" d="M469.646,118.637c-1.389-1.583-3.9-2.262-7.112-2.262h-9.323
	c-0.657,0-1.216,0.478-1.319,1.126l-3.882,24.62c-0.077,0.485,0.299,0.925,0.791,0.925h5.755l1.446-9.168l-0.045,0.287
	c0.103-0.648,0.657-1.126,1.313-1.126h2.735c5.373,0,9.58-2.184,10.81-8.496c0.036-0.187,0.068-0.369,0.095-0.546
	c-0.155-0.082-0.155-0.082,0,0C471.277,121.663,470.908,120.075,469.646,118.637"/>
<path id="path14531" fill="#002F86" d="M457.556,124.028c0.061-0.39,0.312-0.709,0.649-0.872c0.153-0.073,0.324-0.114,0.503-0.114
	h7.309c0.866,0,1.673,0.057,2.411,0.175c0.212,0.034,0.417,0.073,0.616,0.118c0.199,0.044,0.393,0.094,0.58,0.149
	c0.094,0.027,0.186,0.055,0.276,0.085c0.363,0.121,0.701,0.262,1.011,0.427c0.366-2.334-0.002-3.922-1.265-5.36
	c-1.39-1.583-3.9-2.262-7.112-2.262h-9.324c-0.656,0-1.215,0.478-1.317,1.126l-3.882,24.619c-0.077,0.486,0.299,0.926,0.79,0.926
	h5.757l1.445-9.169L457.556,124.028z"/>
<path id="path14535" fill="#009CDE" d="M470.911,123.997L470.911,123.997c-0.028,0.179-0.059,0.359-0.095,0.546
	c-1.229,6.312-5.437,8.496-10.81,8.496h-2.736c-0.656,0-1.211,0.478-1.313,1.126l-1.4,8.881l-0.397,2.519
	c-0.067,0.425,0.261,0.811,0.691,0.811h4.852c0.574,0,1.063-0.419,1.153-0.985l0.047-0.247l0.915-5.796l0.059-0.32
	c0.09-0.566,0.579-0.984,1.153-0.984h0.726c4.7,0,8.38-1.91,9.456-7.433c0.449-2.308,0.216-4.234-0.971-5.588
	C471.88,124.612,471.433,124.273,470.911,123.997"/>
<path id="path14539" fill="#012069" d="M469.625,123.484c-0.188-0.055-0.381-0.104-0.58-0.148s-0.405-0.083-0.616-0.117
	c-0.739-0.12-1.545-0.176-2.412-0.176h-7.308c-0.18,0-0.351,0.041-0.504,0.114c-0.337,0.162-0.587,0.48-0.649,0.872l-1.553,9.85
	l-0.045,0.286c0.102-0.647,0.656-1.125,1.313-1.125h2.736c5.373,0,9.58-2.184,10.809-8.497c0.037-0.187,0.067-0.367,0.096-0.546
	c-0.312-0.164-0.648-0.306-1.011-0.426C469.81,123.54,469.718,123.511,469.625,123.484"/>
</svg>
