<?xml version="1.0" encoding="utf-8"?>
<!-- Generator: Adobe Illustrator 16.0.4, SVG Export Plug-In . SVG Version: 6.00 Build 0)  -->
<!DOCTYPE svg PUBLIC "-//W3C//DTD SVG 1.1//EN" "http://www.w3.org/Graphics/SVG/1.1/DTD/svg11.dtd">
<svg version="1.1" id="Ebene_1" xmlns="http://www.w3.org/2000/svg" xmlns:xlink="http://www.w3.org/1999/xlink" x="0px" y="0px"
	 width="148px" height="40px" viewBox="0 0 148 40" enable-background="new 0 0 148 40" xml:space="preserve">
<g>
	<defs>
		<rect id="SVGID_1_" x="-0.617" y="-0.974" width="148.617" height="58.92"/>
	</defs>
	<clipPath id="SVGID_2_">
		<use xlink:href="#SVGID_1_"  overflow="visible"/>
	</clipPath>
	<rect x="-0.617" y="-0.974" clip-path="url(#SVGID_2_)" fill="#FFCA27" width="148.617" height="58.92"/>
</g>
<polyline fill="#FFFFFF" points="122.794,31.964 124.247,25.085 5.671,25.085 4.217,31.964 122.794,31.964 "/>
<path fill="#E52420" d="M137.076,15.708c0,0,1.59-7.289,1.612-7.357h-10.104c0,0.045-2.089,9.672-2.089,9.718
	c0.022,0,2.589,0,2.589,0c0.022,0,1.589-7.266,1.589-7.266h4.904c0,0-1.544,7.289-1.589,7.335c0.045,0,7.47,0,7.47,0l-0.976,4.495
	c0,0-7.402,0-7.426,0c0,0.046-1.498,6.857-1.498,6.857s-5.563,0-5.608,0c0,0.023-0.5,2.452-0.523,2.475h8.266
	c0-0.022,1.477-6.879,1.477-6.879s7.379,0,7.426,0c0-0.023,1.952-9.332,1.952-9.377H137.076"/>
<path d="M12.8,19.59l1.067-5.018h1.362c1.499,0,2.225,0.613,2.225,2.044c0,1.839-1.157,2.974-3.291,2.974H12.8 M12.232,22.383h1.431
	c4.564,0,7.107-2.247,7.107-5.994c0-2.794-1.976-4.61-5.359-4.61h-4.223L7.964,27.038h3.269L12.232,22.383z M25.925,24.767
	c-1.295,0-2.317-1.021-1.84-3.36c0.476-2.339,1.612-3.36,2.906-3.36c1.295,0,2.316,1.044,1.816,3.36
	C28.331,23.723,27.218,24.767,25.925,24.767z M25.629,27.379c3.565,0,5.971-2.589,6.516-5.972c0.569-3.384-1.316-5.973-4.882-5.973
	c-3.564,0-5.971,2.589-6.516,5.973C20.179,24.79,22.064,27.379,25.629,27.379z M37.844,23.723c0,0.909-1.112,1.067-2.043,1.067
	c-1.181,0-2.498-0.317-3.201-0.545l-0.546,2.543c1.023,0.25,2.317,0.454,3.542,0.454c2.907,0,5.269-1.09,5.269-3.815
	c0-3.519-4.224-2.906-4.224-4.472c0-0.704,0.682-0.954,1.748-0.954c1.022,0,2.453,0.409,2.93,0.545l0.545-2.566
	c-0.976-0.272-2.135-0.431-3.18-0.431c-3.155,0-5.062,1.408-5.062,3.747C33.622,22.723,37.844,22.156,37.844,23.723z M50.151,18.251
	l0.523-2.475H47.2l0.681-3.134l-3.384,0.749l-2.112,9.627c-0.589,2.726,0.909,4.224,3.633,4.224c0.569,0,1.522-0.113,2.203-0.34
	l0.545-2.475c-0.545,0.136-1.226,0.272-1.816,0.272c-0.932,0-1.59-0.317-1.362-1.453l1.067-4.995H50.151z M53.352,27.038
	l1.272-5.881h4.905l0.591-2.884h-4.883l0.75-3.61h5.154l0.636-2.884h-8.515l-3.224,15.259H53.352z M62.526,15.776l-2.43,11.262
	h3.225l2.43-11.262H62.526z M62.981,12.665c-0.069,1.021,0.681,1.816,1.68,1.816c1.112,0,1.907-0.795,1.974-1.816
	c0.069-1.022-0.68-1.817-1.679-1.817C63.844,10.848,63.049,11.643,62.981,12.665z M68.794,27.038l1.248-5.745
	c0.5-2.316,1.634-3.111,2.816-3.111c1.521,0,1.703,1.136,1.408,2.43l-1.363,6.426h3.247l1.43-6.585
	c0.704-3.292-0.816-5.019-3.2-5.019c-1.318,0-2.59,0.523-3.68,1.681l0.295-1.339h-3.02l-2.429,11.262H68.794z M84.529,15.503
	c-1.499,0-3.021,0.341-3.521,0.5l-0.544,2.611c0.726-0.204,2.156-0.591,3.429-0.591c1.702,0,2.315,0.523,2.315,1.408
	c0,0.159,0,0.341-0.045,0.522l-0.046,0.228c-0.818-0.091-1.589-0.159-1.953-0.159c-3.224,0-5.812,1.248-5.812,4.201
	c0,1.929,1.498,3.087,3.45,3.087c1.386,0,2.566-0.545,3.338-1.453l-0.25,1.181h2.884l1.408-6.448
	c0.113-0.478,0.158-0.977,0.158-1.454C89.342,17.206,88.275,15.503,84.529,15.503z M81.396,23.791c0-1.135,0.999-1.772,2.655-1.772
	c0.319,0,1.022,0.024,1.659,0.115l-0.137,0.635c-0.387,1.339-1.476,2.248-2.77,2.248C81.872,25.017,81.396,24.563,81.396,23.791z
	 M93.066,27.038l1.249-5.745c0.499-2.316,1.635-3.111,2.815-3.111c1.521,0,1.703,1.136,1.407,2.43l-1.362,6.426h3.247l1.431-6.585
	c0.704-3.292-0.817-5.019-3.201-5.019c-1.317,0-2.589,0.523-3.679,1.681l0.295-1.339h-3.02l-2.43,11.262H93.066z M108.756,24.608
	c-1.476,0-2.475-0.635-2.475-2.474c0-2.158,1.362-3.952,3.52-3.952c0.682,0,1.453,0.204,2.226,0.5l0.545-2.588
	c-0.886-0.318-1.931-0.545-2.975-0.545c-3.565,0-6.608,2.656-6.608,6.744c0,3.36,2.067,4.949,5.041,4.949
	c0.999,0,1.839-0.182,2.453-0.431l0.59-2.657C110.392,24.404,109.642,24.608,108.756,24.608z M121.085,26.902l0.591-2.702
	c-0.999,0.34-1.976,0.612-3.224,0.612c-1.454,0-2.725-0.499-2.793-2.248h7.493c0.271-0.886,0.431-1.77,0.431-2.588
	c0-2.498-1.453-4.542-4.563-4.542c-4.042,0-6.494,3.317-6.494,6.972c0,3.133,2.089,4.973,5.336,4.973
	C119.179,27.379,120.223,27.174,121.085,26.902z M118.792,17.865c1.067,0,1.794,0.727,1.794,1.93c0,0.204-0.022,0.386-0.045,0.59
	h-4.609C116.408,18.864,117.43,17.865,118.792,17.865z"/>
</svg>
